<?xml version="1.0" encoding="utf-8"?>
<!-- Generator: Adobe Illustrator 27.5.0, SVG Export Plug-In . SVG Version: 6.00 Build 0)  -->
<svg version="1.1" xmlns="http://www.w3.org/2000/svg" xmlns:xlink="http://www.w3.org/1999/xlink" x="0px" y="0px"
	 viewBox="0 0 750 500" style="enable-background:new 0 0 750 500;" xml:space="preserve">
<g id="BACKGROUND">
</g>
<g id="OBJECTS">
	<g>
		<path style="fill:#FFF6F3;" d="M362.363,500c-0.043-0.807,105.063,1.417,105.071,0c0.032-5.577-28.493-33.12-45.719-47.451
			c-2.04-1.697-4.114-3.353-6.208-4.983c0.009-0.006,0.019-0.01,0.028-0.016c0.497-0.306,0.795-0.935,1.185-1.415
			c-0.347,0.115-0.76,0.147-1.029,0.36c-0.33,0.262-0.645,0.408-0.948,0.473c-1.335-1.031-2.68-2.051-4.036-3.055
			c-2.183-1.966-4.607-3.67-6.64-5.863c-3.046-3.286-7.133-5.553-11.079-7.763c-3.358-1.881-6.924-3.39-10.384-5.091
			c-4.538-2.232-9.171-4.302-13.56-6.8c-3.408-1.939-6.504-4.426-9.735-6.674c-0.054-0.038-0.07-0.13-0.104-0.196
			c-0.88,1.067-12.641-7.621-12.556-8.052c-0.332-0.559-0.57-1.209-1.01-1.664c-2.639-2.726-5.165-5.489-7.115-8.819
			c-1.806-3.084-3.539-6.174-4.985-9.443c-2.448-5.533-3.478-11.343-3.482-17.346c-0.001-2.225,0.31-4.448,0.415-6.675
			c0.103-2.207-0.075-4.447,0.233-6.622c0.445-3.141,0.745-6.244,0.252-9.402c-0.099-0.637,0.124-1.324,0.19-1.988
			c0.081-0.812,0.319-1.651,0.196-2.433c-0.356-2.269-0.764-4.54-1.336-6.762c-0.422-1.64-1.242-3.175-1.691-4.81
			c-1.119-4.068-3.726-7.316-6.853-9.666c-4.838-3.636-10.183-6.585-16.16-8.262c-2.549-0.715-5.12-1.061-7.674-1.234
			c-4.269-0.29-8.574-0.135-12.844,0.383c-1.104,0.134-2.202,0.333-3.309,0.426c-2.296,0.193-4.634,0.13-6.889,0.54
			c-5.546,1.008-11.07,2.151-16.571,3.38c-3.987,0.891-7.916,2.037-11.886,3.009c-1.727,0.423-3.51,0.614-5.235,1.045
			c-5.897,1.475-11.779,3.009-17.667,4.523c-1.506,0.387-3.017,0.759-4.514,1.18c-2.201,0.619-4.381,1.317-6.592,1.896
			c-0.925,0.242-1.914,0.226-2.862,0.393c-2.838,0.501-5.654,1.321-8.509,1.479c-3.179,0.176-6.39-0.235-9.587-0.407
			c-0.29-0.016-0.581-0.13-0.861-0.23c-3.546-1.257-7.115-2.382-10.449-4.246c-4.028-2.252-7.497-5.111-10.669-8.391
			c-3.575-3.696-7.161-7.383-10.674-11.138c-2.826-3.021-6.125-5.434-9.531-7.72c-1.039-0.697-2.171-1.254-3.254-1.886
			c-3.197-1.863-6.254-3.966-9.762-5.279c-2.217-0.829-4.404-1.785-6.495-2.89c-2.62-1.385-5.387-2.22-8.249-2.894
			c-3.417-0.804-6.835-1.339-10.361-1.111c-1.714,0.111-3.479-0.184-5.15,0.11c-3.421,0.602-6.69,1.854-10.171,2.334
			c-2.092,0.289-4.089,1.288-6.12,1.994c-1.325,0.461-2.636,0.962-3.948,1.456c-3.27,1.231-6.683,2.184-9.772,3.768
			c-5.279,2.707-10.391,5.749-15.501,8.771c-3.478,2.057-6.84,4.311-10.243,6.495c-2.244,1.44-4.448,2.942-6.706,4.357
			c-2.31,1.448-4.57,3.025-7.021,4.191c-5.752,2.737-11.609,5.255-17.414,7.882c-0.81,0.366-1.525,0.98-2.359,1.249
			c-3.956,1.278-7.975,2.371-11.892,3.758c-1.521,0.539-2.977,0.898-4.564,0.8L0,500H362.363z"/>
		<path style="fill:#FEF6F3;" d="M679.519,286c-4.481-0.037-8.887-0.751-13.323-1.288c-5.837-0.707-11.193-2.96-16.663-4.759
			c-3.967-1.305-7.648-3.543-11.35-5.561c-2.247-1.225-4.265-2.864-6.434-4.241c-3.419-2.171-6.149-5.041-8.608-8.208
			c-0.203-0.262-0.44-0.501-0.683-0.729c-3.429-3.223-5.791-7.175-7.806-11.369c-0.214-0.446-0.506-0.857-0.792-1.264
			c-3.001-4.259-4.76-9.073-6.049-14.049c-0.66-2.548-0.892-5.206-1.318-7.815c-0.053-0.327-0.044-0.68-0.169-0.976
			c-1.368-3.23-1.322-6.626-1.354-10.048c-0.04-4.146-0.293-8.29-0.483-12.433c-0.137-2.979-0.705-5.995-0.412-8.927
			c0.863-8.646,0.319-17.295,0.366-25.938c0.026-4.871-0.952-9.619-2.779-14.242c-1.411-3.57-3.28-6.717-6.067-9.252
			c-2.878-2.617-5.836-5.191-9.02-7.41c-1.92-1.338-4.274-2.164-6.544-2.861c-3.614-1.111-7.291-2.075-10.998-2.815
			c-2.982-0.595-5.907-1.735-9.053-1.339c-0.461,0.058-0.961-0.175-1.441-0.282c-1.026-0.228-2.039-0.574-3.077-0.673
			c-4.441-0.425-8.87-0.837-13.192-2.082c-1.785-0.514-3.72-0.484-5.533-0.926c-4.985-1.214-9.957-2.492-14.906-3.847
			c-5.968-1.634-11.517-4.305-16.657-7.67c-3.417-2.237-6.844-4.545-9.288-8.062c-1.967-2.83-4.505-5.255-6.64-7.978
			c-2.374-3.029-3.803-6.575-5.304-10.101c-2.233-5.246-2.835-10.841-3.942-16.333c0.98,0.13,1.958,0.267,2.939,0.389
			c2.87,0.357,5.754,1.085,8.607,0.978c4.781-0.178,9.534-1.179,14.312-1.298c5.311-0.132,10.062-2.095,14.873-3.819
			c4.821-1.728,9.481-3.914,14.169-5.995c3.239-1.438,6.407-3.035,9.601-4.572c1.845-0.888,3.678-1.797,5.517-2.697
			c1.501,1.516,2.566,1.732,4.306,0.978c1.784-0.772,2.237-2.211,2.125-3.974c3.381-0.988,6.757-1.994,10.148-2.951
			c0.937-0.264,1.916-0.382,2.876-0.567c0.221,1.372,0.613,2.645,2.21,2.956c1.57,0.306,2.85-0.409,3.644-1.626
			c0.499-0.765,0.477-1.87,0.688-2.823c2.237-0.134,4.474-0.268,6.711-0.402c-0.379,0.903-0.93,1.775-1.095,2.715
			c-0.234,1.333,1.032,3.095,2.384,3.409c1.176,0.272,2.172-0.327,2.715-1.322c0.58-1.062,0.914-2.258,1.356-3.396
			c0.964-0.384,1.91-0.37,2.867,0.059c2.263,1.014,4.535,2.007,6.804,3.008c-0.285,0.59-0.587,1.172-0.851,1.771
			c-0.457,1.034-0.633,2.075,0.281,2.959c0.93,0.9,1.953,1.346,3.332,0.883c1.439-0.483,2.341-1.437,3.033-2.693
			c5.016,0.373,9.848,1.855,14.902,2.198c5.482,0.371,10.796,0.297,16.203-0.886c3.99-0.873,7.783-1.944,11.226-4.141
			c3.894,0.629,7.741,0.489,11.535-0.675c4.746-1.455,9.461-2.978,13.841-5.381c0.859-0.471,1.822-0.752,2.736-1.121
			c0.257,2.164,1.953,3.44,3.275,4.813c4.174,4.333,8.925,8.002,14.017,11.209c0.74,0.466,1.631,0.693,2.453,1.031
			c-0.069,1.73-0.242,3.465-0.158,5.188c0.035,0.721,0.426,1.706,0.982,2.072c2.601,1.707,5.341,2.612,8.119,0.281
			c0.723-0.606,1.391-1.277,2.085-1.918c4.307,0.776,8.613,1.551,12.919,2.326c-0.084,0.406-0.111,0.836-0.262,1.216
			c-2.493,6.251-3.13,12.837-3.472,19.466c-0.223,4.328-0.081,8.646,1.569,12.742c2.195,5.447,4.887,10.616,8.745,15.109
			c3.554,4.139,7.968,6.909,13.208,8.368c1.912,0.532,3.832,1.057,5.775,1.457c2.235,0.46,4.499,0.778,6.751,1.158
			c0,38.667,0,77.333,0,116c-1.808,1.783-3.609,3.573-5.428,5.345c-0.932,0.908-1.894,1.784-2.844,2.673
			c-0.292,0.273-0.653,0.498-0.87,0.821c-2.619,3.893-6.096,6.924-9.682,9.876c-2.095,1.724-3.94,3.751-6.034,5.477
			c-4.131,3.407-8.307,6.761-13.19,9.102c-2.246,1.076-4.321,2.561-6.636,3.427c-2.694,1.008-5.565,1.542-8.358,2.282
			c-1.052-1.152-2.05-2.359-3.167-3.444c-2.357-2.286-6.072-2.751-8.966-1.22c-2.586,1.368-4.697,3.103-4.992,6.292
			C679.82,285.763,679.627,285.877,679.519,286z M680.141,63.074l-0.077,0.042c-1.065-0.036-1.128,0.614-0.969,1.416
			c-0.093,0.092-0.157,0.201-0.194,0.327c-1.631,2.003-1.607,3.024,0.109,4.623c0.553,0.969,1.076,1.972,2.372,2.102
			c0.859,1.314,1.985,0.984,3.135,0.51c1.88,0.009,3.021-1.147,4.01-2.544c1.025-0.966,2.015-3.708,1.68-4.783
			c-0.056-0.181-0.367-0.282-0.56-0.42c-0.15-0.167-0.3-0.333-0.451-0.499c-0.45-0.963-0.737-2.144-2.251-1.685
			c-0.142-0.079-0.293-0.132-0.453-0.158c-1.18-1.213-2.387-1.272-4.229-0.208c-0.409,0.103-0.817,0.206-1.225,0.308
			C680.738,62.428,680.439,62.751,680.141,63.074z M687.953,258.662c0-0.665,0.152-1.377-0.034-1.985
			c-0.314-1.024-0.849-1.98-1.281-2.969c-0.676-1.549-3.154-2.904-4.814-2.574c-2.225,0.441-4.313,1.137-5.793,3.048
			c-0.502,0.648-1.164,1.191-1.817,1.699c-1.046,0.813-1.4,1.782-1.001,3.064c0.17,0.546,0.21,1.135,0.279,1.707
			c0.488,4.02,3.954,6.606,7.867,5.768c1.26-0.27,2.799-0.471,3.621-1.293C686.701,263.409,688.138,261.346,687.953,258.662z
			 M674.98,277.898c0-0.498,0.056-1.004-0.009-1.493c-0.383-2.88-2.128-4.242-4.99-3.872c-0.649,0.084-1.304,0.272-1.909,0.526
			c-2.047,0.859-3.773,3.281-3.521,5.146c0.391,2.887,2.639,4.956,6.202,4.8C673.208,282.897,674.988,280.795,674.98,277.898z
			 M527.339,84.377c-2.968-1.297-6.382-0.497-8.31,1.898c-0.245,0.305-0.426,0.712-0.498,1.098
			c-0.512,2.776,1.068,4.583,3.861,4.666c1.374,0.041,2.337-0.446,3.254-1.4C527.333,88.884,527.871,86.863,527.339,84.377z
			 M534.506,93.402c-0.01,2.197,1.71,4.076,3.736,4.081c1.92,0.005,3.663-1.671,3.743-3.599c0.086-2.066-1.489-3.898-3.324-3.867
			C535.753,90.065,534.517,91.072,534.506,93.402z M532.282,81.987c2.021-0.002,3.689-1.754,3.721-3.908
			c0.028-1.94-1.214-3.506-2.792-3.518c-2.424-0.018-4.251,1.824-4.194,4.231C529.05,80.244,530.834,81.988,532.282,81.987z
			 M592.03,68.512c1.946-0.011,3.686-1.832,3.673-3.843c-0.01-1.525-1.281-2.729-2.913-2.761c-1.601-0.031-4.097,2.266-4.044,3.722
			C588.811,67.447,590.038,68.523,592.03,68.512z M581.206,75.488c1.54-0.026,3.126-1.546,3.093-2.964
			c-0.037-1.542-1.9-3.352-3.451-3.352c-1.612-0.001-3.234,1.673-3.145,3.246C577.809,74.28,579.227,75.522,581.206,75.488z
			 M566.908,56.35c-0.029-1.63-1.071-3.01-2.283-3.023c-1.928-0.02-3.582,1.668-3.576,3.65c0.007,1.967,1.013,3.083,2.76,3.059
			C565.701,60.012,566.946,58.53,566.908,56.35z M638.854,106.441c2.334-0.058,4.109-1.442,4.467-3.004
			c0.325-1.416,0.047-1.963-1.281-2.523c-1.487-0.627-3.442,0.009-4.584,1.489c-0.721,0.934-1.012,1.998-0.23,2.938
			C637.736,105.954,638.595,106.275,638.854,106.441z M652.605,100.297c-1.862-0.041-3.515,1.555-3.535,3.411
			c-0.017,1.562,0.817,2.446,2.4,2.548c1.896,0.122,3.887-1.818,3.842-3.744C655.28,101.137,654.3,100.334,652.605,100.297z
			 M569.716,73.142c0.014-1.541-1.27-2.845-2.803-2.847c-1.716-0.002-3.221,1.713-3.242,3.694c-0.013,1.269,1.211,2.648,2.359,2.658
			C568.084,76.664,569.698,75.13,569.716,73.142z M555.283,62.949c-1.778,0.038-2.839,1.17-2.823,3.011
			c0.014,1.705,1.131,2.66,3.151,2.694c1.602,0.027,2.949-1.383,2.885-3.02C558.434,64.052,557.068,62.911,555.283,62.949z
			 M645.861,94.201c1.766,0.197,3.454-1.025,3.604-2.609c0.142-1.505-0.83-2.62-2.469-2.832c-1.675-0.217-3.337,1.12-3.474,2.796
			C643.404,93.001,644.312,94.028,645.861,94.201z M575.49,67.397c1.708,0.027,2.998-1.249,2.984-2.953
			c-0.011-1.38-1.348-2.854-2.58-2.845c-1.592,0.012-2.951,1.415-2.965,3.059C572.917,66.307,573.913,67.372,575.49,67.397z
			 M578.98,56.352c0.053-1.65-0.753-2.669-2.192-2.77c-1.821-0.128-3.195,1.139-3.23,2.978c-0.029,1.562,0.851,2.441,2.441,2.438
			C577.736,58.995,578.929,57.936,578.98,56.352z M699.996,169.283c-0.02,1.636,1.006,2.714,2.567,2.697
			c1.5-0.016,2.748-1.371,2.719-2.952c-0.029-1.56-1.063-2.214-3.13-2.379C700.71,166.534,700.215,167.241,699.996,169.283z
			 M588.608,60.02c1.417-0.045,2.791-1.348,2.773-2.63c-0.02-1.457-1.307-2.853-2.589-2.806c-1.385,0.051-3.175,1.76-3.173,3.028
			C585.622,58.771,587.227,60.064,588.608,60.02z"/>
		<path style="fill:#FEDBD0;" d="M623,500c-63.833,0-127.667,0-191.5,0c0.109-1.4,0.038-2.844,0.365-4.191
			c0.775-3.196,1.715-6.353,2.636-9.511c0.602-2.062,1.084-4.195,1.979-6.129c2.321-5.011,3.543-10.485,6.466-15.235
			c0.126-0.205,0.181-0.471,0.207-0.716c0.161-1.56,1.197-2.67,1.938-3.947c1.587-2.735,3.482-5.229,5.48-7.668
			c1.135-1.386,2.09-2.918,3.127-4.385c0.878,0.766,1.792,1.494,2.627,2.303c3.598,3.486,7.44,6.677,11.787,9.17
			c6.411,3.678,13.171,5.353,20.6,3.493c4.237-1.061,8.191-2.676,12.041-4.69c7.177-3.755,13.324-8.74,18.465-14.989
			c0.938-1.14,1.95-2.218,2.932-3.33c1.704,0.772,3.2,1.503,4.737,2.135c5.842,2.405,11.935,3.647,18.246,3.4
			c5.454-0.214,10.695-1.651,15.701-3.762c10.855-4.578,21.031-10.344,30.219-17.776c0.768-0.622,1.628-1.13,2.446-1.692
			c2.325-0.514,4.693-0.884,6.966-1.569c6.536-1.969,12.432-5.303,18.194-8.877c2.296-1.424,4.526-2.953,6.786-4.435
			c2.576-0.065,5.17-0.355,7.723-0.145c4.5,0.369,8.904,1.307,12.737,3.908c2.238,1.519,3.939,3.496,4.736,6.04
			c-0.14,0.221-0.167,0.323-0.227,0.349c-1.063,0.465-2.143,0.893-3.194,1.383c-6.055,2.821-10.479,7.337-13.259,13.349
			c-2.424,5.241-1.382,10.402,1.047,15.386c1.19,2.441,3.62,3.714,6.339,3.293c4.946-0.766,8.461-3.775,11.243-7.64
			c3.751-5.209,4.589-11.135,3.601-17.373c-0.335-2.116-0.785-4.215-1.232-6.582c4.976-0.537,9.83-1.131,14.698-1.569
			c6.83-0.614,13.517-1.964,19.931-4.322c7.326-2.694,14.531-5.719,21.76-8.672c7.81-3.19,14.893-7.747,22.164-11.949
			c6.273-3.625,11.789-8.086,15.927-14.114c0.129-0.188,0.372-0.296,0.562-0.442c0,14.833,0,29.667,0,44.5
			c-2.472,0.148-4.942,0.406-7.415,0.423c-6.998,0.048-13.85,1.277-20.66,2.647c-6.182,1.243-12.155,3.319-18.031,5.599
			c-4.17,1.619-8.171,3.69-12.377,5.197c-6.222,2.23-11.549,6.109-17.404,9.01c-6.341,3.141-11.549,7.948-17.087,12.288
			c-6.142,4.813-11.179,10.666-16.643,16.128c-2.606,2.605-4.496,5.696-6.591,8.626c-3.688,5.156-7.004,10.578-10.453,15.904
			C623.126,499.15,623.108,499.604,623,500z"/>
		<path style="fill:#DAF1FF;" d="M645.881,51.659c-3.444,2.198-7.237,3.269-11.227,4.142c-5.407,1.183-10.721,1.257-16.203,0.886
			c-5.054-0.342-9.887-1.825-14.902-2.197c-0.856-3.399-2.841-4.399-5.794-2.92c-2.269-1.001-4.541-1.994-6.804-3.008
			c-0.956-0.429-1.903-0.444-2.867-0.059c-1.488-2.235-1.988-2.422-4.426-1.665c-0.308,0.096-0.622,0.173-0.934,0.259
			c-2.237,0.134-4.474,0.268-6.711,0.402c-0.739-1.253-1.693-2.499-3.206-2.389c-1.607,0.117-2.477,1.491-3.06,2.929
			c-0.124,0.305-0.185,0.635-0.276,0.953c-0.96,0.185-1.938,0.303-2.876,0.567c-3.39,0.957-6.766,1.963-10.147,2.95
			c-1.414-2.314-3.32-2.549-5.366-0.809c-1.271,1.081-1.104,2.429-1.065,3.805c-1.839,0.9-3.672,1.81-5.517,2.697
			c-3.194,1.537-6.362,3.134-9.601,4.572c-4.688,2.082-9.348,4.268-14.169,5.995c-4.811,1.724-9.562,3.686-14.873,3.819
			c-4.778,0.119-9.532,1.12-14.312,1.298c-2.853,0.106-5.737-0.621-8.607-0.978c-0.98-0.122-1.959-0.259-2.939-0.389
			c-2.363-0.368-4.721-0.78-7.092-1.09c-2-0.261-3.925-0.803-5.824-1.424c-3.394-1.11-6.983-1.584-10.152-3.461
			c-1.592-0.943-3.536-1.27-5.24-2.053c-1.543-0.71-3.048-1.556-4.438-2.53c-2.127-1.492-3.957-3.517-6.243-4.645
			c-3.516-1.734-6.063-4.565-8.865-7.057c-3.401-3.025-6.384-6.527-9.485-9.88c-1.283-1.387-2.404-2.925-3.599-4.393
			c-0.378-2.33,0.786-4.375,1.219-6.554c0.725-3.649,1.875-7.265,2.137-10.945C422.897,11.745,420.94,5.538,417,0
			c20.5,0,41,0,61.5,0c-0.334,0.744-0.549,1.574-1.022,2.215c-1.668,2.265-3.487,4.42-5.125,6.704
			c-1.189,1.657-2.928,2.972-3.304,5.167c-0.288,1.685,0.126,2.97,1.294,3.722c1.494,0.961,2.96,0.907,4.359-0.297
			c0.683-0.588,1.251-1.322,1.811-2.036c2.653-3.387,5.321-6.763,7.908-10.2C485.698,3.579,486.812,1.762,488,0c4.5,0,9,0,13.5,0
			c0.123,1.5-1.014,2.382-1.715,3.473c-2.413,3.757-4.932,7.45-7.207,11.288c-0.569,0.961-0.591,2.397-0.471,3.575
			c0.133,1.304,1.367,1.894,2.524,2.077c1.09,0.173,2.344,0.473,3.224-0.677c1.207-1.577,2.49-3.1,3.623-4.729
			c1.464-2.105,2.748-4.335,4.227-6.429c1.671-2.365,3.494-4.623,5.198-6.966c0.324-0.446,0.404-1.071,0.596-1.613c5,0,10,0,15,0
			c-0.232,0.611-0.347,1.305-0.714,1.819c-2.735,3.83-5.445,7.683-8.324,11.404c-1.283,1.659-1.603,3.413-1.419,5.355
			c0.106,1.125,0.814,1.749,1.948,1.928c2.662,0.42,4.179-0.294,5.572-2.684c0.501-0.859,0.898-1.794,1.492-2.581
			c3.288-4.359,6.64-8.669,9.921-13.033C535.452,1.574,535.665,0.741,536,0c34,0,68,0,102,0c0.491,0.561,0.98,1.123,1.473,1.682
			c4.428,5.028,4.185,12.375-0.242,16.761c-0.211-0.087-0.468-0.137-0.655-0.279c-2.769-2.107-5.976-2.398-9.267-2.138
			c-1.727,0.137-3.141,1.059-4.202,2.437c-1.645,2.136-1.148,4.628,1.264,5.86c0.856,0.437,1.892,0.643,2.862,0.713
			c2.694,0.194,5.313-0.153,7.75-1.452c0.534-0.285,1.154-0.408,2.152-0.748c0,1.712,0.06,3.033-0.011,4.347
			c-0.222,4.07-0.547,8.135-0.728,12.207c-0.118,2.663-0.042,5.303,1.412,7.73C641.23,49.495,643.467,50.67,645.881,51.659z
			 M505.11,29.489c-0.256,0.137-1.162,0.397-1.751,0.979c-1.643,1.623-3.498,3.063-4.524,5.257c-0.551,1.178-1.23,2.391-2.15,3.279
			c-1.557,1.504-1.816,3.266-1.701,5.241c0.087,1.485,0.856,2.751,1.986,3.143c1.423,0.494,2.874-0.019,3.812-1.384
			c1.122-1.632,2.277-3.246,3.316-4.93c1.392-2.255,2.824-4.503,3.984-6.878C509.283,31.736,508.074,29.505,505.11,29.489z
			 M470.871,45.496c3.93-2.956,6.278-6.95,8.522-11.002c0.421-0.759,0.546-1.745,0.593-2.637c0.115-2.214-1.125-3.274-3.26-2.788
			c-0.698,0.159-1.432,0.522-1.96,1.001c-3.155,2.855-5.824,6.098-7.631,9.99c-1.079,2.325-0.087,4.407,2.387,5.027
			C469.919,45.187,470.308,45.324,470.871,45.496z M483.452,50.507c-0.306,0.179-1.145,0.442-1.65,1.005
			c-2.047,2.282-4.107,4.57-5.924,7.033c-0.96,1.3-1.567,2.919-2.059,4.481c-0.24,0.762-0.129,1.908,0.305,2.559
			c1.552,2.329,3.448,2.759,6.064-0.173c1.369-1.534,2.54-3.287,3.56-5.078c1.105-1.941,2.089-3.986,2.833-6.089
			C487.303,52.206,485.934,50.448,483.452,50.507z M597.483,46.377c2.103-0.022,2.929-0.841,2.868-2.844
			c-0.057-1.852-1.607-3.491-3.253-3.437c-1.659,0.054-3.031,1.374-3.053,2.937C594.016,45.133,595.318,46.4,597.483,46.377z
			 M561.771,44.979c1.662-0.011,3.404-1.567,3.36-3c-0.043-1.369-1.98-3.188-3.38-3.174c-1.53,0.016-2.99,1.54-2.947,3.077
			C558.865,44.084,559.736,44.992,561.771,44.979z M578.863,36.717c-0.009-1.883-1.526-3.421-3.295-3.34
			c-1.232,0.056-2.813,1.778-2.814,3.065c-0.001,1.306,1.752,2.963,3.161,2.988C578.061,39.467,578.873,38.72,578.863,36.717z
			 M588.878,36.266c0.019-1.723-1.126-2.82-3.004-2.876c-1.633-0.049-3.337,1.691-3.285,3.355c0.045,1.431,1.488,2.712,3.024,2.684
			C587.147,39.402,588.862,37.74,588.878,36.266z"/>
		<path style="fill:#FFF6F3;" d="M408.533,58.479c-1.798,1.317-3.541,2.718-5.404,3.934c-4.277,2.79-8.624,5.473-12.917,8.238
			c-1.319,0.85-2.504,1.91-3.841,2.728c-3.322,2.033-6.663,4.039-10.056,5.95c-4.422,2.49-9.039,4.543-13.92,5.997
			c-1.251,0.373-2.369,1.453-3.606,1.564c-3.596,0.324-6.705,2.239-10.194,2.823c-2.65,0.443-5.321,0.782-7.949,1.326
			c-2.188,0.453-4.305,1.146-6.604,0.991c-2.044-0.138-4.111,0.076-6.156-0.053c-3.711-0.235-7.408-0.74-11.121-0.898
			c-6.035-0.257-11.638-2.472-17.477-3.602c-0.082-0.016-0.172-0.011-0.245-0.045c-4.718-2.176-9.728-3.572-14.331-6.159
			c-4.785-2.69-9.472-5.47-13.768-8.848c-3.828-3.01-7.697-6.056-10.006-10.542c-0.076-0.147-0.16-0.299-0.275-0.414
			c-3.238-3.252-5.741-7.057-8.316-10.825c-2.801-4.099-5.895-8.072-7.86-12.606c-1.689-3.898-3.863-7.634-4.614-11.963
			c-0.731-4.219-2.033-8.335-2.924-12.53C236.001,9.088,235.15,4.603,235.5,0c40.333,0,80.667,0,121,0
			c-1.292,1.925-2.708,3.779-3.849,5.789c-2.4,4.23-3.022,8.88-2.741,13.661c0.331,5.63-0.091,11.171-2.82,16.187
			c-1.488,2.735-3.597,5.14-5.482,7.651c-3.375,4.494-7.508,7.921-13.143,9.225c-1.399,0.324-2.042,1.155-1.928,2.188
			c0.113,1.028,0.972,1.667,2.328,1.799c3.949,0.387,7.743-0.654,11.507-1.497c2.204-0.494,4.342-1.662,6.276-2.895
			c3.62-2.309,7.354-4.551,9.807-8.272c1.273-1.932,2.426-3.959,3.85-5.774c3.284-4.188,4.09-9.14,4.697-14.186
			c0.237-1.967,0.279-3.993,0.806-5.882c1.375-4.927,3.913-9.306,6.887-13.439C373.789,3.032,374.897,1.518,376,0
			c0.333,0,0.667,0,1,0c-0.329,1.449-0.902,2.891-0.939,4.347c-0.08,3.205-0.865,6.349-0.146,9.641
			c0.896,4.105,1.201,8.336,1.848,12.499c0.52,3.347,1.199,6.669,1.752,10.011c0.296,1.792,0.551,3.599,0.683,5.409
			c0.113,1.551,0.278,3.168-0.025,4.665c-0.901,4.458-2.036,8.868-3.048,13.305c-0.404,1.774-0.747,3.562-1.077,5.351
			c-0.2,1.081,0.098,2.042,1.134,2.532c0.968,0.458,1.953,0.366,2.756-0.454c0.465-0.475,0.986-0.921,1.348-1.469
			c2.832-4.282,5.744-8.516,8.411-12.899c3.175-5.218,4.931-11.034,6.229-16.944c0.67-3.05,0.737-6.233,1.052-9.359
			c0.05-0.492,0.017-1.003-0.056-1.494c-0.457-3.105-0.869-6.218-1.423-9.306C394.548,10.549,393.504,5.278,392.5,0
			c1.667,0,3.333,0,5,0c0.782,1.536,1.581,3.063,2.343,4.609c1.241,2.515,2.622,4.976,3.647,7.578
			c1.597,4.056,1.215,8.276,0.595,12.49c-0.3,2.039-0.426,4.105-0.578,6.163c-0.188,2.552-0.335,5.108-0.467,7.664
			c-0.03,0.573,0.056,1.155,0.118,1.729c0.098,0.9,0.325,1.797,0.318,2.694c-0.034,4.595,1.39,8.792,3.424,12.824
			C407.376,56.695,407.985,57.571,408.533,58.479z M276.632,42.652c-0.272-0.678-0.444-1.137-0.639-1.585
			c-0.597-1.379-2.087-2.423-3.211-2.26c-1.504,0.218-2.581,1.558-2.661,3.383c-0.044,0.994-0.087,1.999,0.007,2.986
			c0.121,1.273-0.402,1.949-1.547,2.48c-1.267,0.587-2.528,1.301-3.586,2.202c-1.931,1.644-1.602,3.844,0.659,5.026
			c0.65,0.34,1.407,0.474,2.111,0.715c0.918,0.313,1.832,0.638,2.789,0.973c-0.052,0.866-0.003,1.539-0.147,2.167
			c-0.301,1.305-0.002,2.43,0.663,3.563c0.606,1.033,1.134,2.076,2.539,2.058c1.467-0.019,2.16-1.031,2.763-2.182
			c0.487-0.929,1.041-1.823,1.891-3.299c0.617,0.898,0.875,1.634,1.389,1.938c0.802,0.474,1.795,0.953,2.675,0.9
			c2.02-0.121,2.896-2.671,1.707-4.659c-0.68-1.136-1.353-2.282-2.121-3.358c-0.733-1.025-0.681-1.988-0.056-2.997
			c1.266-2.044,2.51-4.103,3.81-6.125c0.924-1.438,1.006-2.486,0.154-3.646c-0.952-1.297-1.593-1.48-3.479-0.738
			C280.495,40.918,278.695,41.757,276.632,42.652z"/>
		<path style="fill:#548099;" d="M623,500c0.108-0.396,0.126-0.85,0.338-1.178c3.449-5.325,6.766-10.747,10.453-15.904
			c2.095-2.93,3.985-6.021,6.591-8.626c5.464-5.462,10.501-11.315,16.643-16.128c5.538-4.34,10.746-9.147,17.087-12.288
			c5.855-2.901,11.182-6.78,17.404-9.01c4.206-1.507,8.207-3.578,12.377-5.197c5.876-2.281,11.849-4.356,18.031-5.599
			c6.81-1.37,13.662-2.598,20.66-2.647c2.472-0.017,4.943-0.275,7.415-0.423c0,25.667,0,51.333,0,77
			C707.667,500,665.333,500,623,500z M676.375,463.035c1.139-0.251,2.619-0.443,3.985-0.943c0.563-0.206,1.229-1.084,1.215-1.641
			c-0.013-0.519-0.836-1.415-1.355-1.454c-2.359-0.18-4.741-0.217-7.104-0.089c-0.962,0.052-1.502,0.973-1.518,1.987
			c-0.016,0.99,0.656,1.517,1.505,1.71C674.055,462.823,675.045,462.87,676.375,463.035z M707.815,457.402
			c-1.287,0.123-2.369,0.146-3.416,0.349c-0.971,0.189-1.705,0.856-1.602,1.897c0.107,1.09,0.798,1.832,2.005,1.764
			c2.388-0.135,4.776-0.288,7.159-0.498c0.801-0.071,1.394-0.547,1.424-1.445c0.031-0.915-0.549-1.353-1.359-1.482
			C710.559,457.755,709.086,457.576,707.815,457.402z M726.254,439.961c1.112-0.215,2.701-0.371,4.167-0.88
			c0.615-0.213,1.278-1.134,1.369-1.807c0.134-0.982-0.882-1.442-1.701-1.451c-2.232-0.024-4.478,0.013-6.689,0.279
			c-0.592,0.071-1.399,0.978-1.532,1.621c-0.188,0.906,0.367,1.814,1.446,2.009C724.122,439.877,724.957,439.867,726.254,439.961z
			 M698.203,450.972c0.01,0.05,0.02,0.1,0.03,0.149c1.375-0.248,2.772-0.412,4.117-0.773c0.882-0.237,1.453-1.041,1.088-1.923
			c-0.234-0.566-0.959-1.235-1.526-1.297c-1.551-0.169-3.138-0.088-4.705-0.005c-0.552,0.029-1.29,0.196-1.585,0.577
			c-0.46,0.595-0.888,1.461-0.802,2.145c0.056,0.438,1.022,0.872,1.655,1.091C696.995,451.114,697.624,450.972,698.203,450.972z
			 M715.076,480.338c0.595-0.074,1.654-0.193,2.711-0.339c1.004-0.139,1.888-0.673,1.714-1.707
			c-0.109-0.646-0.848-1.376-1.491-1.706c-1.902-0.976-3.9-0.309-5.789,0.143c-0.519,0.124-1.159,1.292-1.087,1.904
			c0.073,0.618,0.87,1.313,1.518,1.651C713.17,480.554,713.941,480.338,715.076,480.338z M652.969,478.636
			c0.992-0.141,2.333-0.217,3.6-0.565c0.519-0.142,1.203-0.862,1.214-1.333c0.01-0.437-0.739-1.228-1.219-1.282
			c-2.214-0.249-4.455-0.413-6.676-0.329c-0.544,0.02-1.336,1.018-1.5,1.692c-0.23,0.941,0.638,1.49,1.508,1.636
			C650.792,478.605,651.719,478.572,652.969,478.636z M709.683,489.446c-0.95,0.101-1.623,0.107-2.263,0.255
			c-0.974,0.227-1.67,0.848-1.699,1.888c-0.03,1.088,0.736,1.636,1.698,1.861c1.885,0.441,3.648-0.083,5.244-1.002
			c0.951-0.548,0.863-1.725-0.147-2.201C711.565,489.8,710.47,489.657,709.683,489.446z M735.998,451.944
			c0.766-0.263,1.911-0.507,2.907-1.034c1.329-0.703,1.286-2.119-0.137-2.548c-1.368-0.413-2.888-0.43-4.34-0.418
			c-1.058,0.008-1.957,0.585-1.937,1.817c0.019,1.175,0.899,1.694,1.904,1.985C734.784,451.858,735.208,451.851,735.998,451.944z
			 M736.343,471.154c0.952-0.19,1.982-0.219,2.829-0.627c0.533-0.258,1.055-1.068,1.089-1.659c0.026-0.456-0.629-1.207-1.134-1.38
			c-0.902-0.31-1.919-0.375-2.888-0.376c-2.054-0.003-3.157,0.781-3.079,2.046C733.246,470.543,734.07,471.029,736.343,471.154z
			 M685.329,480.831c1.121-0.151,2.125-0.188,3.072-0.44c1.06-0.282,1.275-1.309,0.548-2.125c-0.839-0.942-4.41-1.793-5.578-1.336
			c-0.85,0.332-1.374,0.897-1.335,1.857c0.039,0.958,0.583,1.513,1.482,1.72C684.157,480.654,684.81,480.74,685.329,480.831z
			 M740.005,492.591c-1.539-1.969-3.594-2.067-5.636-1.96c-0.518,0.027-1.346,0.675-1.414,1.13c-0.09,0.604,0.254,1.474,0.712,1.921
			C735.185,495.163,738.52,494.628,740.005,492.591z M676.726,493.932c0.587-0.147,1.677-0.286,2.637-0.716
			c0.486-0.218,1.047-0.983,1.011-1.458c-0.039-0.507-0.658-1.215-1.173-1.388c-0.918-0.307-1.947-0.334-2.934-0.373
			c-1.421-0.057-2.583,0.753-2.604,1.715C673.642,492.718,675.015,493.892,676.726,493.932z M645.368,489.612
			c-0.518,0.079-1.188,0.107-1.81,0.293c-0.819,0.245-1.502,0.673-1.465,1.719c0.041,1.148,0.804,1.672,1.744,1.718
			c1.049,0.052,2.16-0.065,3.152-0.39c0.58-0.19,1.252-0.858,1.4-1.436c0.245-0.953-0.599-1.458-1.413-1.727
			C646.519,489.64,646.001,489.675,645.368,489.612z"/>
		<path style="fill:#FEDBD0;" d="M0,167c0-26.167,0-52.333,0-78.5c0.655-0.054,1.348,0.012,1.957-0.184
			c2.915-0.939,5.824-1.904,8.703-2.95c2.025-0.735,4.049-1.507,5.985-2.446c7.362-3.571,14.19-7.963,20.285-13.455
			c0.977-0.88,2.019-1.686,3.031-2.527c0.166,0.179,0.303,0.467,0.502,0.52c2.616,0.693,5.08,1.824,7.844,2.137
			c2.246,0.255,4.413-0.067,6.612-0.105c1.972-0.034,3.95-0.216,5.91-0.455c2.202-0.269,4.38-0.885,6.583-0.967
			c2.481-0.093,4.64-1.107,6.921-1.79c1.481-0.444,2.984-0.823,4.446-1.322c1.438-0.492,2.836-1.099,4.251-1.654
			c2.793,2.133,6.002,3.297,9.37,4.16c1.408,0.361,2.737,1.032,4.103,1.562c0.266,2.54,0.588,5.076,0.777,7.622
			c0.115,1.554,0.345,3.212-0.054,4.664c-0.515,1.874-0.791,3.707-0.737,5.622c-1.573,3.32-3.654,6.326-6.088,9.04
			c-3.324,3.707-6.727,7.357-10.291,10.831c-3.92,3.821-7.962,7.531-12.132,11.076c-4.86,4.131-10.081,7.837-14.27,12.729
			c-2.655,3.1-5.309,6.215-7.058,9.913c-1.381,2.918-2.466,5.988-3.514,9.048c-0.934,2.729-1.636,5.537-2.437,8.3
			c-0.516,0.024-0.845,0.064-1.171,0.051c-3.396-0.132-6.816-0.595-10.184-0.349c-9.322,0.68-18.082,3.378-26.199,8.083
			C2.164,166.221,1.051,166.557,0,167z"/>
		<path style="fill:#DAF1FF;" d="M346.953,489.988c0.806,1.415,1.73,2.778,2.39,4.258c0.832,1.868,1.448,3.832,2.157,5.754
			c-43.5,0-87,0-130.5,0c0.664-4.841,1.467-9.669,1.949-14.528c0.409-4.123,0.447-8.283,0.649-12.426
			c0.655-0.292,1.496-0.416,1.932-0.903c1.935-2.161,4.26-3.808,6.56-5.537c3.753-2.82,7.508-5.604,11.694-7.767
			c0.521-0.269,0.858-0.895,1.28-1.356c1.969-0.804,3.904-1.705,5.914-2.389c2.802-0.953,5.66-1.745,8.494-2.605
			c0.444,0.781,0.854,1.584,1.34,2.338c1.034,1.602,3.777,1.039,4.439-0.312c0.597-1.219,1.348-2.508,0.685-3.985
			c1.22-0.01,2.44-0.019,3.659-0.029c0.702,1.529,1.924,2.014,3.551,1.953c1.667-0.062,1.744-1.442,2.288-2.46
			c1.394-0.16,2.786-0.341,4.183-0.474c0.906-0.086,1.406,0.366,1.468,1.282c-0.581,0.457-1.236,0.848-1.725,1.388
			c-0.997,1.1-1.005,2.435-0.49,3.73c0.443,1.113,1.448,1.554,2.592,1.627c1.41,0.09,3.026-0.987,3.526-2.301
			c0.455-1.196,0.04-2.505-1.157-3.529c-0.436-0.373-0.922-0.689-1.385-1.031c0.254-0.166,0.511-0.479,0.762-0.474
			c1.561,0.031,3.12,0.133,4.678,0.211c1.094,0.858,2.293,1.005,3.583,0.518c0.516,0.348,0.986,0.863,1.554,1.015
			c2.989,0.797,5.976,1.653,9.016,2.189c2.214,0.391,4.217,1.307,6.306,1.99c2.187,0.715,4.316,1.674,6.363,2.734
			c2.392,1.238,4.669,2.697,6.993,4.066c3.399,2.002,6.29,4.673,9.358,7.11c-0.825,0.879-1.67,1.742-2.471,2.642
			c-2.811,3.157-5.61,6.324-8.407,9.493c-0.931,1.055-1.882,2.098-2.752,3.203c-1.282,1.629-1.073,4.988,0.312,5.917
			c1.948,1.307,4.248,0.857,5.65-1.118c0.623-0.878,1.155-1.829,1.845-2.649c3.565-4.239,7.427-8.242,10.273-13.047
			c2.732,1.785,4.457,4.533,6.55,6.923c0.331,0.378,0.315,1.06,0.46,1.601c-0.496,0.652-1.051,1.268-1.474,1.965
			c-0.803,1.321-0.775,3.932-0.021,4.694c1.143,1.154,3.035,1.425,4.766,0.701C346.165,490.212,346.565,490.113,346.953,489.988z
			 M274.546,464.028c0.019-2.027-1.097-3.298-2.884-3.284c-1.897,0.015-4.097,2.687-4.097,4.975c0,1.415,1.258,2.597,2.755,2.588
			C272.798,468.292,274.522,466.546,274.546,464.028z M300.5,458.117c0.013-1.961-1.734-3.932-3.438-3.88
			c-1.956,0.061-3.375,1.636-3.444,3.82c-0.054,1.74,1.356,2.824,3.628,2.788C298.99,460.819,300.49,459.56,300.5,458.117z
			 M288.982,464.155c0.038-2.048-0.319-2.983-1.43-3.368c-1.198-0.415-2.281-0.054-3.198,0.77c-1.084,0.975-1.515,2.591-1.055,3.791
			c0.59,1.539,1.254,2.056,2.702,2.102C287.991,467.513,288.94,466.464,288.982,464.155z"/>
		<path style="fill:#FEDBD0;" d="M703.429,358.623c0.502-1.426,1.928-1.133,2.946-1.451c1.315-0.41,2.746-0.447,4.128-0.646
			c-0.073,1.037-0.284,2.089-0.18,3.108c0.102,0.994,0.945,1.465,1.891,1.687c1.031,0.242,1.717-0.193,2.278-1.028
			c0.839-1.249,1.542-2.52,1.195-4.107c2.698-0.336,5.388-0.789,8.096-0.966c1.798-0.118,3.675,0.481,5.423,0.193
			c4.629-0.762,9.263-0.294,13.889-0.384c2.297-0.044,4.602,0.301,6.904,0.47c0,6,0,12,0,18c-0.168,0.168-0.379,0.31-0.499,0.507
			c-3.606,5.916-8.197,10.898-14.1,14.566c-9.541,5.927-19.201,11.641-29.712,15.749c-4.875,1.905-9.688,3.974-14.602,5.768
			c-6.175,2.255-12.495,3.985-19.078,4.65c-6.024,0.609-12.036,1.349-18.086,2.036c-0.09-0.077-0.245-0.163-0.332-0.294
			c-0.23-0.345-0.451-0.7-0.642-1.069c-2.945-5.662-7.74-8.766-13.872-9.97c-2.517-0.494-5.059-0.863-7.59-1.289
			c0.122-1.386,1.372-1.852,2.257-2.453c3.107-2.111,5.83-4.582,8.397-7.337c2.64-2.832,5.637-5.351,8.608-7.852
			c3.084-2.596,6.282-5.065,9.508-7.485c4.242-3.181,8.981-5.539,13.649-8.011c1.312-0.695,2.5-1.622,3.798-2.346
			c2.435-1.357,4.861-2.746,7.38-3.931c3.057-1.438,5.85-3.482,9.246-4.157c1.207-0.24,2.427-0.418,3.641-0.625
			c0.038,0.747,0.084,1.493,0.112,2.241c0.048,1.279,0.794,1.688,1.971,1.714C703.511,363.988,704.945,361.76,703.429,358.623z"/>
		<path style="fill:#56819B;" d="M57.51,457.612c7.145-2.064,14.546-3.315,21.271-6.71c0.294-0.148,0.596-0.312,0.913-0.376
			c1.115-0.226,1.846,0.461,1.457,1.539c-0.502,1.392-1.12,2.772-1.899,4.026c-1.746,2.811-3.623,5.542-5.446,8.305
			c-3.48,3.206-6.708,6.758-10.503,9.534c-5.403,3.951-11.477,6.726-18.266,7.474c-3.769,0.415-7.528,1.343-11.356,0.469
			c-0.543-0.124-1.098-0.198-1.702-0.304c-2.741,5.966-4.551,12.065-5.48,18.43c-0.667,0-1.333,0-2,0
			c0.047-0.996-0.041-2.022,0.163-2.985c1.855-8.751,4.84-17.099,9.313-24.86c2.197-3.813,4.602-7.509,7.008-11.196
			c1.63-2.497,3.424-4.887,5.145-7.325c0.707-0.793,1.414-1.587,1.826-2.049c-1.337-4.444-2.733-8.452-3.722-12.558
			c-0.906-3.763-0.302-7.588,0.281-11.383c0.427-2.786,0.691-5.602,0.898-8.414c0.539-7.303,1.03-14.61,1.491-21.919
			c0.141-2.242,0.072-4.498,0.198-6.741c0.083-1.468-0.072-3.421,1.695-3.792c1.799-0.378,2.727,1.386,3.382,2.777
			c1.878,3.985,3.742,7.986,4.607,12.361c0.5,2.527,1.048,5.048,1.682,7.544c1.66,6.54,1.353,13.035-0.341,19.504
			c-1.01,3.857-2.083,7.696-3.115,11.547c-0.081,0.302-0.059,0.632-0.138,1.602c4.488-4.461,7.787-9.186,11.478-13.553
			c3.756-4.445,7.3-9.081,10.746-13.773c3.441-4.686,6.087-9.859,8.756-15.053c-1.95-0.825-3.721-1.493-5.418-2.314
			c-1.995-0.966-3.474-2.515-4.659-4.396c-2.918-4.634-4.822-9.683-6.084-14.97c-1.099-4.607-2.018-9.257-2.983-13.895
			c-0.37-1.781,0.934-2.944,2.664-2.336c0.675,0.237,1.307,0.735,1.828,1.246c5.293,5.196,10.216,10.715,14.295,16.93
			c0.951,1.448,1.61,3.09,2.377,4.656c0.715,1.462,1.396,2.941,2.091,4.412c0.184-0.025,0.369-0.049,0.553-0.074
			c0.57-2.137,1.031-4.311,1.741-6.4c0.686-2.019,0.513-3.751-0.461-5.692c-1.933-3.85-2.263-8.14-2.788-12.352
			c-0.267-2.142-0.713-4.277-0.791-6.425c-0.243-6.719,2.212-12.722,5.395-18.432c1.78-3.192,3.947-6.169,5.951-9.235
			c0.226-0.346,0.484-0.688,0.789-0.962c1.019-0.913,1.987-0.691,2.548,0.593c0.197,0.453,0.33,0.948,0.404,1.438
			c0.771,5.099,1.548,10.196,1.283,15.386c-0.242,4.729-0.409,9.461-0.621,14.191c-0.263,5.86-1.892,11.295-5.25,16.133
			c-0.69,0.994-1.642,1.891-2.657,2.548c-0.904,0.586-1.382,1.11-1.026,2.166c0.173,0.034,0.378,0.141,0.461,0.081
			c4.238-3.071,9.005-4.968,13.999-6.39c3.119-0.888,6.217-1.852,9.316-2.809c0.709-0.219,1.533-0.754,1.974,0.12
			c0.211,0.418-0.073,1.317-0.429,1.756c-3.838,4.724-7.825,9.269-13.147,12.472c-4.119,2.479-8.495,3.238-13.181,2.755
			c-0.401-0.041-0.801-0.094-1.403-0.165c-0.513,1.27-1.061,2.461-1.48,3.695c-1.126,3.313-2.51,6.49-4.453,9.422
			c-0.589,0.889-0.936,1.94-1.393,2.917c-0.092,0.177-0.184,0.354-0.276,0.531c0.237-0.025,0.475-0.049,0.712-0.074
			c8.518-4.686,17.852-5.489,27.302-5.726c4.238-0.106,8.496,0.056,12.66-0.997c0.32-0.081,0.688-0.208,0.977-0.122
			c0.431,0.129,0.934,0.345,1.165,0.687c0.135,0.199-0.127,0.769-0.346,1.076c-0.233,0.327-0.62,0.546-0.949,0.8
			c-4.471,3.456-8.851,7.037-13.446,10.319c-3.093,2.209-6.334,4.341-9.788,5.883c-4.479,1.999-9.254,2.422-14.099,0.841
			c-3.231-1.054-6.577-1.775-9.11-4.412c-5.55,7.005-10.925,13.789-16.3,20.573c0.1,0.131,0.201,0.262,0.301,0.394
			c1.158-0.542,2.28-1.184,3.48-1.603c2.105-0.736,4.22-1.533,6.399-1.952c4.669-0.897,9.384-1.167,14.146-0.602
			c2.304,0.273,4.653,0.157,6.981,0.233c0.495,0.016,1.018,0.013,1.476,0.172c0.931,0.323,1.159,1.218,0.56,1.997
			c-0.15,0.194-0.348,0.364-0.553,0.501c-5.39,3.602-10.583,7.572-16.826,9.66c-4.521,1.513-9.105,2.594-13.959,1.56
			c-2.984-0.636-6.028-0.992-9.407-1.532c-1.229,1.622-2.828,3.432-4.06,5.465c-0.787,1.297-1.522,2.517-2.777,3.402
			c-0.313,0.22-0.452,0.686-0.672,1.038c-2.79,3.854-5.6,7.693-8.352,11.574c-0.505,0.712-0.774,1.592-1.151,2.396
			c-0.148,0.187-0.298,0.372-0.446,0.558c-0.049,0.137-0.098,0.273-0.148,0.409c0.085-0.101,0.169-0.202,0.254-0.303
			c0.175-0.159,0.349-0.318,0.524-0.476c0.359-0.195,0.757-0.343,1.072-0.594c4.498-3.578,9.142-6.901,14.687-8.726
			C56.097,458.5,56.785,457.999,57.51,457.612z M54.425,441.944c-0.545,0.543-0.931,1.13-0.546,2.46
			c0.526-0.893,0.821-1.396,1.117-1.898C54.806,442.318,54.615,442.131,54.425,441.944z"/>
		<path style="fill:#B2CDDD;" d="M203.5,500c-28.167,0-56.333,0-84.5,0c1.579-2.025,3.197-4.021,4.731-6.079
			c6.246-8.378,11.41-17.326,14.302-27.453c0.29-1.015,0.785-1.708,1.872-2.113c1.625-0.605,3.261-1.3,4.707-2.241
			c2.703-1.757,5.273-3.719,7.899-5.595c0.724,0.841,1.492,0.323,2.277,0.105c1.509-0.419,3.015-0.961,4.557-1.123
			c1.518-0.159,2.939-0.342,4.212-1.261c0.46-0.332,1.027-0.601,1.581-0.702c3.082-0.565,6.171-1.099,9.267-1.587
			c3.507-0.553,7.013-1.126,10.537-1.545c4.593-0.547,9.198-1.015,13.808-1.394c3.384-0.278,6.784-0.345,10.175-0.546
			c0.372-0.022,0.727-0.309,1.091-0.473c0.773,0.86,1.621,1.664,2.303,2.59c1.619,2.199,3.404,4.325,4.683,6.715
			c3.164,5.915,4.317,12.338,4.11,19.02c-1.822,1.284-3.545,2.656-4.742,4.6c-0.692,1.125-1.486,2.192-2.282,3.248
			c-1.578,2.094-3.217,4.141-4.778,6.247c-1.37,1.847-2.75,3.695-3.969,5.642C204.576,497.276,204.103,498.679,203.5,500z"/>
		<path style="fill:#B2CDDD;" d="M0,31.5C0,21.027,0,10.555,0,0c21.333,0,42.667,0,64,0c-0.152,1.149-0.362,2.295-0.445,3.449
			c-0.456,6.311-1.958,12.421-3.71,18.458c-1.083,3.73-2.348,7.439-3.917,10.987c-1.836,4.151-3.841,8.271-6.224,12.125
			c-3.708,6-8.317,11.342-13.31,16.328c-1.152,1.15-2.46,2.144-3.697,3.21c-1.915-1.117-3.945-2.078-5.721-3.385
			c-3.388-2.494-6.481-5.412-9.98-7.724c-2.96-1.955-5.241-4.524-7.552-7.058c-3.626-3.977-6.692-8.376-8.461-13.556
			C0.812,32.337,0.335,31.943,0,31.5z"/>
		<path style="fill:#54809A;" d="M0,367c1.953,0.858,4.023,1.524,5.837,2.613c4.339,2.606,8.422,5.588,12.183,9.001
			c7.607,6.902,12.849,15.19,15.549,25.179c1.135,4.2,1.898,8.407,2.177,12.703c0.491,7.553-0.901,14.816-3.643,21.862
			c-1.81,4.652-4.023,9.07-6.872,13.17c-0.178,0.257-0.213,0.613-0.314,0.923c-0.706,0.697-1.407,1.399-2.12,2.089
			c-1.599,1.548-3.107,3.208-4.825,4.612c-4.805,3.927-9.685,7.762-14.564,11.598c-1.008,0.792-1.893,1.912-3.409,1.75
			C0,437.333,0,402.167,0,367z"/>
		<path style="fill:#B2CDDD;" d="M26.5,500c0.929-6.365,2.74-12.464,5.48-18.43c0.603,0.106,1.158,0.18,1.702,0.304
			c3.828,0.874,7.586-0.054,11.356-0.469c6.789-0.748,12.863-3.524,18.266-7.474c3.796-2.775,7.023-6.328,10.503-9.534
			c3.102,2.025,6.632,2.88,10.186,3.581c4.458,0.88,8.946,1.606,13.421,2.397c0.163,0.029,0.331,0.078,0.493,0.066
			c5.706-0.412,11.501,0.316,17.092-1.612c2.083-0.719,4.354-0.881,6.519-1.383c0.977-0.227,2.248-0.094,2.553-1.51
			c3.712,1.091,7.464,0.778,11.605,0.016c-0.403,1.373-0.662,2.386-0.997,3.374c-3.081,9.089-8.229,17.02-13.851,24.685
			c-1.456,1.986-2.886,3.991-4.328,5.988C86.5,500,56.5,500,26.5,500z"/>
		<path style="fill:#54809A;" d="M750,129c-2.252-0.38-4.516-0.698-6.751-1.158c-1.943-0.4-3.862-0.924-5.775-1.457
			c-5.24-1.459-9.654-4.229-13.208-8.368c-3.859-4.494-6.55-9.662-8.745-15.109c-1.651-4.096-1.792-8.413-1.569-12.742
			c0.342-6.628,0.979-13.214,3.472-19.466c0.151-0.38,0.178-0.809,0.261-1.215c0.56-0.912,1.104-1.835,1.684-2.735
			c1.165-1.807,2.239-3.687,3.552-5.381c2.027-2.615,4.08-5.24,6.39-7.598c2.017-2.059,4.199-4.116,6.677-5.523
			c3.273-1.858,6.882-3.141,10.398-4.542c1.12-0.446,2.405-0.482,3.614-0.706C750,71.667,750,100.333,750,129z"/>
		<path style="fill:#B2CDDD;" d="M750,43c-1.209,0.224-2.494,0.259-3.614,0.706c-3.516,1.401-7.126,2.684-10.398,4.542
			c-2.479,1.407-4.661,3.464-6.677,5.523c-2.31,2.358-4.363,4.983-6.39,7.598c-1.313,1.694-2.387,3.574-3.552,5.381
			c-0.58,0.9-1.125,1.823-1.684,2.735c-4.305-0.776-8.612-1.551-12.917-2.325c0.282-0.771,0.446-1.614,0.865-2.303
			c1.523-2.51,0.799-4.808-0.781-6.845c-1.046-1.348-2.575-2.473-4.375-2.397c-1.699,0.072-3.363,0.746-4.435,2.212
			c-0.856,1.171-1.541,2.467-2.303,3.708c-0.821-0.338-1.712-0.565-2.453-1.031c-5.093-3.207-9.843-6.876-14.017-11.209
			c-1.322-1.372-3.018-2.648-3.275-4.813c3.419-2.466,6.885-4.87,10.243-7.417c3.138-2.381,5.852-5.197,7.599-8.785
			c0.75-1.541,1.906-2.135,3.526-2.326c3.125-0.368,6.224-0.984,9.355-1.277c3.795-0.355,7.611-0.627,11.418-0.641
			c1.759-0.006,3.607,0.42,5.302,1.61c-0.364,0.614-0.68,1.166-1.013,1.708c-1.778,2.894-3.57,5.78-5.338,8.68
			c-0.656,1.076-0.791,2.241-0.043,3.293c0.763,1.074,1.962,0.805,2.981,0.542c3.378-0.871,5.963-2.942,7.831-5.808
			c1.4-2.147,1.55-4.513,0.374-6.888c-0.915-1.848-0.917-1.878,0.562-3.316c2.935-2.854,6.223-5.239,9.781-7.256
			C741.046,14.067,745.524,11.534,750,9C750,20.333,750,31.667,750,43z"/>
		<path style="fill:#FEF6F3;" d="M453.697,448.218c-1.036,1.466-1.992,2.999-3.127,4.385c-1.997,2.439-3.893,4.933-5.48,7.668
			c-0.741,1.277-1.777,2.387-1.938,3.947c-0.025,0.244-0.081,0.511-0.207,0.716c-2.923,4.751-4.145,10.224-6.466,15.235
			c-0.896,1.934-1.377,4.067-1.979,6.129c-0.922,3.158-1.861,6.316-2.636,9.511c-0.327,1.347-0.255,2.791-0.365,4.191
			c-8.333,0-16.667,0-25,0c-0.064-0.492-0.127-0.984-0.191-1.476c-0.786-6.001-1.833-11.982-2.289-18.008
			c-0.5-6.618-0.296-13.268,0.94-19.837c1.29-6.857,3.538-13.302,7.994-18.814c1.804-2.231,3.905-4.056,6.617-5.126
			c7.006-2.763,13.85-2.131,20.494,1.109C445.279,440.392,449.524,444.273,453.697,448.218z"/>
		<path style="fill:#B2CDDD;" d="M83.031,63.301c-1.415,0.556-2.813,1.164-4.251,1.655c-1.462,0.5-2.965,0.879-4.446,1.322
			c-2.282,0.684-4.44,1.698-6.921,1.79c-2.203,0.082-4.381,0.698-6.583,0.967c-1.96,0.239-3.937,0.421-5.91,0.455
			c-2.199,0.038-4.365,0.36-6.612,0.105c-2.764-0.314-5.228-1.445-7.844-2.137c-0.199-0.053-0.336-0.341-0.502-0.52
			c1.978-2.224,4.006-4.406,5.921-6.682c2.343-2.786,4.779-5.523,6.841-8.511c3.819-5.535,6.768-11.561,9.313-17.785
			c2.326-5.688,4.254-11.51,5.402-17.54C68.473,10.981,69.16,5.476,70,0c6.667,0,13.333,0,20,0c0.208,5.189,1.58,9.927,5.012,14
			c1.433,1.701,2.7,3.601,3.715,5.579c1.447,2.82,2.437,5.754,1.288,9.064c-1.492,4.298-4.563,6.224-8.889,6.84
			c-7.757,1.105-12.076,6.899-12.529,14.454C78.297,54.936,79.795,59.43,83.031,63.301z"/>
		<path style="fill:#5D859D;" d="M453.697,448.218c-4.173-3.945-8.418-7.826-13.632-10.369c-6.644-3.241-13.488-3.872-20.494-1.109
			c-2.712,1.069-4.814,2.894-6.617,5.126c-4.456,5.512-6.704,11.957-7.994,18.814c-1.236,6.569-1.44,13.219-0.94,19.837
			c0.456,6.026,1.503,12.007,2.289,18.008c0.064,0.492,0.128,0.984,0.191,1.476c-1,0-2,0-3,0c-0.048-0.899-0.047-1.804-0.152-2.696
			c-0.636-5.436-1.441-10.857-1.901-16.307c-0.335-3.965-0.414-7.975-0.272-11.952c0.276-7.714,1.882-15.169,5.327-22.127
			c2.157-4.356,4.886-8.252,9.027-11.079c4.653-3.177,9.791-4.007,15.208-3.599c7.091,0.533,12.977,3.859,18.324,8.305
			c2.236,1.859,4.459,3.733,6.689,5.599c3.79,3.227,7.337,6.807,11.421,9.605c7.432,5.091,15.641,6.85,24.394,3.67
			c4.21-1.529,8.286-3.37,12.08-5.845c5.415-3.533,10.19-7.729,14.251-12.749c0.603-0.745,1.155-1.531,1.799-2.388
			c-4.865-3.29-8.586-7.267-11.563-11.948c-1.977-4.036-3.754-8.144-4.246-12.674c-0.618-5.684,0.519-10.88,4.306-15.343
			c7.45-8.777,17.131-4.118,20.673,1.989c3.019,5.207,4.006,10.856,2.952,16.788c-0.522,2.935-1.291,5.827-1.948,8.738
			c-1.193,2.637-2.33,5.303-3.604,7.9c-0.639,1.302-1.527,2.482-2.352,3.795c1.172,0.621,2.086,1.221,3.08,1.615
			c10.465,4.143,20.984,4.634,31.595,0.488c5.979-2.336,11.681-5.231,17.151-8.551c3.608-2.19,6.999-4.739,10.487-7.127
			c2.397-1.768,4.815-3.507,7.186-5.31c7.254-5.519,15.14-9.814,23.882-12.49c3.984-1.219,8.052-1.862,12.21-1.993
			c0.661-0.021,1.321-0.104,1.981-0.157c2.531,0.427,5.073,0.795,7.59,1.29c6.133,1.204,10.928,4.308,13.872,9.97
			c0.191,0.368,0.411,0.723,0.642,1.069c0.087,0.131,0.242,0.217,0.332,0.294c6.05-0.686,12.062-1.426,18.086-2.036
			c6.583-0.666,12.902-2.396,19.078-4.65c4.914-1.794,9.728-3.863,14.602-5.768c10.511-4.108,20.171-9.822,29.712-15.749
			c5.903-3.667,10.494-8.65,14.1-14.566c0.12-0.197,0.331-0.339,0.499-0.507c0,1.667,0,3.333,0,5
			c-0.19,0.146-0.434,0.254-0.562,0.442c-4.137,6.029-9.654,10.489-15.927,14.114c-7.271,4.202-14.354,8.758-22.164,11.949
			c-7.229,2.953-14.434,5.979-21.76,8.672c-6.414,2.358-13.101,3.708-19.931,4.322c-4.868,0.438-9.722,1.032-14.698,1.569
			c0.447,2.367,0.896,4.466,1.232,6.582c0.989,6.238,0.15,12.164-3.601,17.373c-2.782,3.864-6.297,6.874-11.243,7.64
			c-2.72,0.421-5.149-0.852-6.339-3.293c-2.429-4.984-3.471-10.145-1.047-15.386c2.78-6.012,7.204-10.527,13.259-13.349
			c1.051-0.49,2.131-0.918,3.194-1.383c0.06-0.026,0.087-0.129,0.227-0.349c-0.797-2.545-2.498-4.521-4.736-6.04
			c-3.833-2.602-8.237-3.539-12.737-3.908c-2.553-0.209-5.147,0.08-7.722,0.145c-2.839,0.556-5.759,0.858-8.5,1.723
			c-5.473,1.727-10.671,4.173-15.496,7.29c-2.762,1.783-5.307,3.901-7.95,5.869c-0.817,0.561-1.677,1.07-2.446,1.692
			c-9.188,7.432-19.365,13.198-30.219,17.776c-5.006,2.111-10.247,3.548-15.701,3.762c-6.311,0.247-12.404-0.995-18.246-3.4
			c-1.536-0.632-3.032-1.364-4.737-2.135c-0.982,1.112-1.995,2.19-2.932,3.33c-5.141,6.249-11.288,11.234-18.465,14.989
			c-3.85,2.014-7.804,3.629-12.041,4.69c-7.43,1.86-14.189,0.184-20.6-3.493c-4.347-2.493-8.189-5.684-11.787-9.17
			C455.489,449.712,454.575,448.983,453.697,448.218z M526.765,426.136c1.719-5.217,2.952-10.54,2.417-16.06
			c-0.418-4.322-1.932-8.262-5.474-11.091c-3.886-3.104-8.374-3.952-12.441,0.361c-3.003,3.185-4.691,7.101-4.647,11.502
			c0.057,5.679,1.696,10.943,5.001,15.629c2.474,4.007,5.76,7.16,9.901,9.719C523.819,432.935,525.686,429.747,526.765,426.136z
			 M651.961,420.462c-5.95,1.56-10.071,5.141-13.571,9.623c-2.34,2.996-2.873,6.522-2.83,10.114
			c0.026,2.222,0.639,4.441,1.956,6.347c1.279,1.852,2.618,2.387,4.71,1.598c1.375-0.518,2.773-1.183,3.906-2.097
			c6.705-5.413,8.435-12.613,7.132-20.786C653.008,423.66,652.418,422.111,651.961,420.462z"/>
		<path style="fill:#B2CDDD;" d="M672.5,0c25.833,0,51.667,0,77.5,0c0,2,0,4,0,6c-2.636,1.576-5.247,3.196-7.914,4.719
			c-6.207,3.545-12.479,6.991-17.596,12.111c-0.684,0.684-1.336,0.841-2.22,0.388c-2.897-1.482-6.038-1.904-9.216-1.663
			c-3.88,0.294-7.744,0.817-11.609,1.282c-2.434,0.293-4.858,0.663-7.489,1.027c0-1.338,0.025-2.403-0.004-3.468
			c-0.129-4.654-3.481-7.969-8.168-7.842c-4.167,0.113-7.354,2.22-9.952,5.386c-2.562,3.122-1.009,8.06,2.848,9.014
			c1.118,0.276,2.282,0.515,3.424,0.512c2.367-0.006,4.733-0.185,7.128-0.294c-0.782,2.385-2.384,4.503-4.955,6.776
			c-3.935,3.477-8.104,6.612-12.785,9.029c-0.766-2.242-1.354-4.567-2.346-6.704c-1.109-2.388-2.811-4.53-2.354-7.403
			c0.016-0.099-0.202-0.235-0.311-0.354c0.233-1.207,0.387-2.437,0.724-3.615c0.264-0.925,0.861-1.755,1.124-2.68
			c1.165-4.099,1.73-8.329,2.987-12.434C672.261,6.693,672.143,3.274,672.5,0z"/>
		<path style="fill:#FEDBD0;" d="M42.168,189.071c-1.874,1.14-3.727,2.315-5.626,3.412c-3.345,1.934-6.678,3.895-10.088,5.709
			c-4.384,2.332-8.965,4.232-13.838,5.266c-3.137,0.666-6.352,0.967-9.481,1.663C2.001,205.374,1.037,205.208,0,205
			c0-11.5,0-23,0-34.5c0.38-0.167,0.792-0.284,1.136-0.507c8.979-5.797,18.757-9.17,29.452-9.88c3.164-0.21,6.234,0.103,9.453,0.694
			c-0.395,3.046-0.763,5.83-1.117,8.616C38.053,176.295,39.233,182.828,42.168,189.071z"/>
		<path style="fill:#B2CDDD;" d="M127.5,0c0.601,3.539,0.765,7.013-0.352,10.551c-0.583,1.847-0.435,3.926-0.617,5.9
			c-1.15,0.029-2.318-0.058-3.447,0.113c-2.206,0.333-3.168,2.513-2.162,4.492c0.782,1.538,2.124,1.938,3.649,2.098
			c-0.942,2.444-1.816,4.887-3.363,7.081c-1.366,1.937-2.156,4.284-3.544,6.201c-2.128,2.94-4.613,5.619-6.832,8.497
			c-2.201,2.854-5.031,4.995-7.824,7.171c-2.801,2.182-5.725,4.206-8.594,6.301c-2.652,1.208-5.306,2.416-7.959,3.624
			c-1.906-1.209-3.236-2.86-3.753-5.079c-0.375-1.614-0.684-3.244-0.989-4.873c-1.051-5.607,2.715-12.21,8.693-13.599
			c0.969-0.225,1.951-0.394,2.924-0.599c7.724-1.627,12.285-9.465,9.489-16.483c-1.17-2.937-2.7-5.701-4.775-8.147
			C94.813,9.44,93.133,5.006,93,0C104.5,0,116,0,127.5,0z"/>
		<path style="fill:#B2CDDD;" d="M0,472.5c1.516,0.161,2.401-0.958,3.409-1.75c4.879-3.836,9.759-7.671,14.564-11.598
			c1.717-1.404,3.226-3.064,4.825-4.612c0.713-0.69,1.414-1.392,2.12-2.089c0.999,0.956,2.174,0.507,3.297,0.397
			c2.798-0.273,5.591-0.608,8.392-0.847c3.306-0.282,6.367,0.969,9.522,1.631c-1.72,2.438-3.515,4.828-5.144,7.325
			c-2.406,3.687-4.811,7.384-7.008,11.196c-4.473,7.761-7.457,16.109-9.313,24.86c-0.204,0.963-0.116,1.988-0.163,2.985
			c-8.167,0-16.333,0-24.5,0C0,490.833,0,481.667,0,472.5z"/>
		<path style="fill:#DAF1FF;" d="M672.5,0c-0.357,3.274-0.239,6.693-1.187,9.785c-1.257,4.105-1.822,8.335-2.987,12.434
			c-0.263,0.925-0.86,1.755-1.124,2.68c-0.336,1.178-0.491,2.408-0.724,3.615c-1.862,1.537-2.636,3.738-3.492,5.861
			c-1.933,4.796-4.845,8.833-9,11.941c-1.518,1.135-3.061,2.238-4.592,3.356c-6.474-0.234-9.244-4.455-8.882-9.647
			c0.214-3.064,0.567-6.12,0.737-9.186c0.129-2.317,0.471-4.735-0.022-6.943c-0.51-2.283-0.123-4.009,1.238-5.71
			c0.155-0.194,0.295-0.405,0.413-0.623c2.695-4.982,2.817-9.958-0.021-14.938C642.371,1.77,641.951,0.876,641.5,0
			C651.833,0,662.167,0,672.5,0z"/>
		<path style="fill:#FFDBD0;" d="M408.533,58.479c-0.548-0.908-1.157-1.784-1.633-2.728c-2.034-4.032-3.458-8.229-3.424-12.824
			c0.007-0.897-0.22-1.795-0.318-2.694c-0.063-0.574-0.148-1.156-0.118-1.729c0.133-2.556,0.279-5.112,0.467-7.664
			c0.152-2.058,0.278-4.124,0.578-6.163c0.62-4.214,1.002-8.434-0.595-12.49c-1.024-2.601-2.406-5.063-3.647-7.578
			C399.081,3.063,398.282,1.536,397.5,0c6.5,0,13,0,19.5,0c3.94,5.538,5.897,11.745,5.417,18.487
			c-0.262,3.68-1.412,7.295-2.137,10.945c-0.433,2.18-1.597,4.224-1.219,6.554c-0.6,2.61-0.512,5.28,0.02,7.828
			c0.706,3.382,1.838,6.677,2.847,9.991c0.312,1.024,0.806,1.994,1.243,2.977c0.811,1.824,1.753,3.528,3.258,4.939
			c1.694,1.589,1.184,3.385-1.11,3.683c-3.144,0.409-6.239,0.143-9.164-1.432C413.359,62.465,410.882,60.576,408.533,58.479z"/>
		<path style="fill:#FFDBD0;" d="M392.5,0c1.004,5.278,2.048,10.549,2.998,15.836c0.555,3.088,0.966,6.201,1.423,9.306
			c0.072,0.491,0.105,1.002,0.056,1.494c-0.315,3.125-0.382,6.309-1.052,9.359c-1.299,5.91-3.054,11.726-6.229,16.944
			c-2.667,4.383-5.579,8.617-8.411,12.899c-0.362,0.548-0.883,0.993-1.348,1.469c-0.803,0.82-1.788,0.912-2.756,0.454
			c-1.036-0.49-1.333-1.451-1.134-2.532c0.331-1.789,0.673-3.578,1.077-5.351c1.012-4.436,2.147-8.847,3.048-13.305
			c0.303-1.498,0.137-3.115,0.025-4.665c-0.132-1.81-0.386-3.617-0.683-5.409c-0.552-3.342-1.231-6.664-1.752-10.011
			c-0.647-4.163-0.952-8.394-1.848-12.499c-0.719-3.292,0.066-6.436,0.146-9.641C376.098,2.891,376.671,1.449,377,0
			C382.167,0,387.333,0,392.5,0z"/>
		<path style="fill:#5D859D;" d="M93,0c0.133,5.006,1.813,9.44,5.045,13.249c2.075,2.446,3.605,5.21,4.775,8.147
			c2.795,7.018-1.765,14.856-9.489,16.483c-0.974,0.205-1.956,0.374-2.924,0.599c-5.978,1.389-9.744,7.993-8.693,13.599
			c0.305,1.629,0.614,3.259,0.989,4.873c0.517,2.22,1.847,3.87,3.753,5.079c2.799,2.163,6.234,2.614,9.497,3.529
			c1.089,0.586,2.274,1.045,3.248,1.783c3.07,2.326,3.933,5.557,3.597,9.262c-0.5,5.5-2.487,10.421-5.609,14.931
			c-0.515,0.744-0.907,1.574-1.355,2.365c-4.73,6.583-10.58,12.14-16.407,17.696c-3.476,3.315-7.243,6.323-10.851,9.501
			c-4.105,3.616-8.377,7.069-12.221,10.946c-6.698,6.756-10.098,15.295-12.229,24.403c-0.165,0.706-0.136,1.457-0.199,2.216
			c2.02,0.831,3.973,1.527,5.833,2.42c5.616,2.697,10.336,6.331,12.531,12.479c0.773,6.582-1.432,12.062-6.04,16.728
			c-3.809,3.857-9.32,4.557-13.412-0.472c-0.21-0.258-0.445-0.495-0.669-0.743c-2.934-6.244-4.114-12.778-3.243-19.648
			c0.354-2.786,0.721-5.57,1.117-8.616c-3.219-0.592-6.289-0.904-9.453-0.694c-10.695,0.71-20.473,4.083-29.452,9.88
			C0.792,170.216,0.38,170.333,0,170.5c0-1.167,0-2.333,0-3.5c1.051-0.443,2.164-0.779,3.143-1.347
			c8.118-4.706,16.877-7.404,26.199-8.083c3.368-0.246,6.788,0.217,10.184,0.349c0.326,0.013,0.655-0.027,1.171-0.051
			c0.801-2.763,1.503-5.571,2.437-8.3c1.047-3.06,2.133-6.13,3.514-9.048c1.749-3.698,4.404-6.813,7.058-9.913
			c4.19-4.892,9.41-8.598,14.27-12.729c4.17-3.545,8.212-7.255,12.132-11.076c3.564-3.474,6.967-7.124,10.291-10.831
			c2.434-2.714,4.515-5.719,6.088-9.039c2.323-3.536,3.511-7.456,3.416-11.65c-0.057-2.538-0.405-5.191-3.401-6.258
			c-1.365-0.53-2.694-1.201-4.103-1.562c-3.368-0.863-6.577-2.028-9.37-4.16c-3.236-3.873-4.733-8.366-4.433-13.365
			c0.453-7.555,4.772-13.35,12.529-14.454c4.325-0.616,7.397-2.542,8.889-6.84c1.149-3.31,0.159-6.244-1.288-9.064
			C97.713,17.601,96.445,15.7,95.012,14C91.58,9.927,90.208,5.189,90,0C91,0,92,0,93,0z M44.946,187.536
			c1.9,3.274,4.276,3.984,7.384,2.064c4.716-2.913,6.973-7.287,7.311-12.738c0.212-2.391-0.75-4.391-2.133-6.224
			c-3.618-4.795-8.645-7.352-14.401-9.103c-0.349,1.349-0.723,2.534-0.958,3.746c-0.944,4.877-0.758,9.796,0.049,14.636
			C42.639,182.553,42.931,185.399,44.946,187.536z"/>
		<path style="fill:#FFDBD0;" d="M376,0c-1.103,1.518-2.211,3.032-3.307,4.555c-2.974,4.133-5.511,8.512-6.887,13.439
			c-0.527,1.889-0.569,3.915-0.806,5.882c-0.607,5.046-1.412,9.998-4.697,14.186c-1.423,1.815-2.576,3.842-3.85,5.774
			c-2.452,3.721-6.186,5.963-9.807,8.272c-1.933,1.233-4.072,2.402-6.276,2.895c-3.764,0.843-7.558,1.883-11.507,1.497
			c-1.356-0.133-2.215-0.771-2.328-1.799c-0.114-1.034,0.529-1.865,1.928-2.188c5.635-1.304,9.768-4.731,13.143-9.225
			c1.885-2.511,3.994-4.916,5.482-7.651c2.729-5.016,3.152-10.558,2.82-16.187c-0.281-4.781,0.34-9.431,2.741-13.661
			c1.141-2.011,2.557-3.865,3.849-5.789C363,0,369.5,0,376,0z"/>
		<path style="fill:#FEDAD0;" d="M0,31.5c0.335,0.443,0.812,0.837,0.983,1.335c1.77,5.179,4.835,9.579,8.461,13.556
			c2.311,2.534,4.592,5.103,7.552,7.058c3.499,2.312,6.592,5.23,9.98,7.724c1.775,1.307,3.806,2.268,5.72,3.384
			c-3.99,4.65-9.291,7.487-14.552,10.317c-3.417,1.839-6.982,3.436-10.584,4.886C5.133,80.738,2.526,81.269,0,82
			C0,65.167,0,48.333,0,31.5z"/>
		<path style="fill:#57829B;" d="M0,82c2.526-0.731,5.133-1.262,7.561-2.24c3.602-1.45,7.167-3.047,10.584-4.886
			c5.26-2.831,10.562-5.667,14.552-10.317c1.237-1.065,2.546-2.059,3.698-3.209c4.993-4.986,9.602-10.328,13.31-16.328
			c2.382-3.855,4.388-7.975,6.224-12.125c1.569-3.548,2.834-7.257,3.917-10.987c1.753-6.038,3.254-12.147,3.71-18.458
			C63.638,2.295,63.848,1.149,64,0c2,0,4,0,6,0c-0.84,5.476-1.527,10.981-2.562,16.42c-1.147,6.029-3.076,11.852-5.402,17.54
			c-2.545,6.224-5.493,12.25-9.313,17.785c-2.062,2.988-4.498,5.725-6.841,8.511c-1.915,2.277-3.943,4.459-5.921,6.682
			c-1.012,0.84-2.055,1.647-3.031,2.527c-6.095,5.492-12.923,9.884-20.285,13.455c-1.936,0.939-3.96,1.711-5.985,2.446
			c-2.879,1.045-5.788,2.01-8.703,2.95C1.348,88.512,0.655,88.446,0,88.5C0,86.333,0,84.167,0,82z"/>
		<path style="fill:#5C869F;" d="M641.5,0c0.451,0.876,0.871,1.77,1.358,2.625c2.838,4.979,2.716,9.956,0.021,14.938
			c-0.118,0.219-0.258,0.429-0.413,0.623c-1.361,1.701-1.748,3.428-1.238,5.71c0.493,2.208,0.151,4.626,0.022,6.943
			c-0.17,3.066-0.523,6.122-0.737,9.186c-0.363,5.192,2.408,9.413,8.883,9.647c0.816,0.026,1.649,0.176,2.444,0.061
			c6.972-1.014,13.509-3.315,19.651-6.756c4.68-2.416,8.85-5.552,12.785-9.029c2.571-2.272,4.173-4.391,4.955-6.776
			c-2.395,0.109-4.761,0.288-7.128,0.294c-1.142,0.003-2.306-0.236-3.424-0.512c-3.856-0.954-5.409-5.892-2.848-9.014
			c2.597-3.165,5.785-5.273,9.952-5.386c4.688-0.127,8.039,3.189,8.168,7.842c0.029,1.064,0.004,2.13,0.004,3.468
			c2.63-0.363,5.055-0.734,7.489-1.027c3.866-0.466,7.729-0.988,11.609-1.282c3.179-0.241,6.319,0.182,9.216,1.663
			c0.885,0.453,1.536,0.296,2.22-0.388c5.118-5.12,11.389-8.567,17.596-12.111C744.753,9.196,747.364,7.576,750,6c0,1,0,2,0,3
			c-4.476,2.534-8.954,5.067-13.429,7.603c-3.558,2.017-6.846,4.402-9.781,7.256c-1.479,1.437-1.477,1.467-0.562,3.316
			c1.176,2.375,1.026,4.741-0.374,6.888c-1.869,2.866-4.453,4.937-7.831,5.808c-1.02,0.263-2.218,0.532-2.981-0.542
			c-0.748-1.052-0.613-2.218,0.043-3.293c1.768-2.9,3.559-5.786,5.338-8.68c0.333-0.542,0.65-1.094,1.013-1.708
			c-1.695-1.19-3.543-1.616-5.302-1.61c-3.808,0.014-7.623,0.286-11.418,0.641c-3.13,0.293-6.229,0.909-9.355,1.277
			c-1.62,0.191-2.776,0.785-3.526,2.326c-1.746,3.587-4.461,6.404-7.599,8.785c-3.358,2.547-6.824,4.951-10.243,7.417
			c-0.915,0.369-1.878,0.65-2.736,1.121c-4.38,2.404-9.095,3.926-13.841,5.381c-3.794,1.163-7.641,1.304-11.535,0.675
			c-2.413-0.99-4.649-2.164-6.072-4.538c-1.454-2.427-1.53-5.067-1.412-7.73c0.18-4.072,0.506-8.137,0.728-12.207
			c0.072-1.314,0.011-2.635,0.011-4.347c-0.998,0.34-1.618,0.463-2.152,0.748c-2.437,1.299-5.056,1.645-7.75,1.452
			c-0.971-0.07-2.007-0.276-2.862-0.713c-2.411-1.232-2.908-3.724-1.264-5.86c1.061-1.378,2.475-2.301,4.202-2.437
			c3.29-0.26,6.498,0.031,9.267,2.138c0.187,0.142,0.444,0.192,0.655,0.279c4.427-4.386,4.669-11.733,0.242-16.761
			C638.98,1.123,638.491,0.561,638,0C639.167,0,640.333,0,641.5,0z M691.081,24.59c0.176-1.756,0.458-3.061,0.406-4.352
			c-0.131-3.248-2.407-5.32-5.661-5.286c-3.446,0.036-5.865,2.001-8.005,4.403c-1.533,1.721-1.155,3.971,0.915,4.948
			c1.015,0.479,2.227,0.768,3.345,0.755C684.953,25.026,687.823,24.776,691.081,24.59z M637.089,20.336
			c-2.008-2.095-6.403-2.927-8.876-1.657c-0.36,0.185-0.693,0.459-0.976,0.751c-1.155,1.194-0.916,2.489,0.564,3.179
			C630.182,23.719,635.18,22.496,637.089,20.336z M717.068,36.946c0.171,0.17,0.342,0.341,0.513,0.511
			c2.96-0.849,5.212-2.653,6.622-5.428c0.829-1.631,0.419-3.118-1.154-4.533C721.036,30.677,719.052,33.811,717.068,36.946z"/>
		<path style="fill:#5E879F;" d="M116.5,500c1.442-1.996,2.872-4.002,4.328-5.988c5.622-7.665,10.77-15.596,13.851-24.685
			c0.335-0.988,0.594-2.002,0.997-3.374c-4.141,0.762-7.892,1.075-11.605-0.016c-2.444-2.027-4.795-4.112-5.824-7.288
			c-2.189-6.757-0.875-12.83,3.686-18.161c2.091-2.444,5.436-2.988,8.48-1.804c4.269,1.661,6.988,4.729,8.105,9.135
			c0.943,3.719,1.461,7.501,0.999,11.362c-0.087,0.726-0.013,1.471-0.013,2.42c0.622-0.123,1.191-0.128,1.66-0.349
			c1.127-0.53,2.259-1.079,3.295-1.764c5.63-3.723,11.032-7.753,15.879-12.467c8.534-8.302,18.932-11.766,30.552-10.834
			c8.313,0.666,15.79,3.901,21.214,10.745c0.508,0.641,1.185,1.147,1.784,1.715c1.658,2.364,3.474,4.635,4.939,7.113
			c3.137,5.308,4.259,11.225,4.77,17.286c-0.202,4.143-0.24,8.303-0.649,12.426c-0.482,4.859-1.285,9.687-1.949,14.528
			c-0.667,0-1.333,0-2,0c0.064-0.902,0.077-1.811,0.199-2.704c0.954-6.964,1.934-13.924,1.911-20.977
			c0.208-6.682-0.946-13.105-4.11-19.02c-1.279-2.39-3.064-4.516-4.683-6.715c-0.682-0.926-1.53-1.731-2.303-2.59
			c-1.733-2.164-3.651-4.181-6.227-5.273c-3.279-1.39-6.602-2.749-10.019-3.724c-4.067-1.161-8.247-0.643-12.392-0.074
			c-6.704,0.92-12.55,3.703-17.688,8.031c-3.75,3.16-7.454,6.375-11.178,9.566c-2.626,1.876-5.196,3.838-7.899,5.595
			c-1.447,0.941-3.082,1.635-4.707,2.241c-1.087,0.405-1.582,1.099-1.872,2.113c-2.892,10.127-8.056,19.075-14.302,27.453
			c-1.535,2.058-3.152,4.055-4.731,6.079C118.167,500,117.333,500,116.5,500z M137.585,455.924c-0.226-1.841-0.346-3.67-0.69-5.455
			c-0.702-3.64-2.383-6.701-5.587-8.784c-3.248-2.112-6.703-1.67-8.715,1.513c-2.711,4.287-3.974,9.005-2.481,14.042
			c1.149,3.876,3.627,6.344,7.888,6.96c2.418,0.349,4.596-0.35,6.873-0.68c1.263-0.183,1.866-0.953,2.018-2.163
			C137.119,459.545,137.354,457.735,137.585,455.924z"/>
		<path style="fill:#DAF1FF;" d="M221.11,476.319c0.023,7.053-0.957,14.013-1.911,20.977c-0.123,0.894-0.136,1.803-0.199,2.704
			c-5.167,0-10.333,0-15.5,0c0.603-1.321,1.076-2.724,1.839-3.944c1.218-1.946,2.599-3.795,3.969-5.642
			c1.561-2.105,3.2-4.153,4.778-6.247c0.796-1.057,1.59-2.123,2.282-3.248C217.565,478.974,219.288,477.603,221.11,476.319z"/>
		<path style="fill:#B4CFDE;" d="M511.5,0c-0.192,0.542-0.272,1.167-0.596,1.613c-1.704,2.343-3.527,4.601-5.198,6.966
			c-1.479,2.093-2.763,4.324-4.227,6.429c-1.133,1.628-2.416,3.152-3.623,4.729c-0.88,1.15-2.134,0.849-3.224,0.677
			c-1.157-0.183-2.391-0.773-2.524-2.077c-0.12-1.178-0.099-2.615,0.471-3.575c2.274-3.838,4.793-7.531,7.207-11.288
			c0.7-1.09,1.838-1.973,1.715-3.473C504.833,0,508.167,0,511.5,0z"/>
		<path style="fill:#B4CFDE;" d="M536,0c-0.335,0.741-0.548,1.574-1.025,2.208c-3.281,4.364-6.633,8.674-9.921,13.033
			c-0.594,0.787-0.991,1.722-1.492,2.581c-1.393,2.39-2.91,3.104-5.572,2.684c-1.134-0.179-1.841-0.803-1.948-1.928
			c-0.184-1.942,0.136-3.696,1.419-5.355c2.879-3.721,5.589-7.574,8.324-11.404c0.367-0.514,0.482-1.208,0.714-1.819
			C529.667,0,532.833,0,536,0z"/>
		<path style="fill:#B4CFDE;" d="M488,0c-1.188,1.762-2.302,3.579-3.578,5.275c-2.587,3.437-5.256,6.813-7.908,10.2
			c-0.56,0.715-1.129,1.449-1.811,2.036c-1.399,1.205-2.865,1.258-4.359,0.297c-1.169-0.752-1.583-2.036-1.294-3.722
			c0.375-2.195,2.115-3.51,3.304-5.167c1.639-2.285,3.457-4.44,5.125-6.704c0.472-0.641,0.688-1.471,1.022-2.215
			C481.667,0,484.833,0,488,0z"/>
		<path style="fill:#FEDBD0;" d="M62.288,173.559c-2.195-6.149-6.916-9.783-12.531-12.479c-1.859-0.893-3.813-1.589-5.833-2.42
			c0.063-0.759,0.034-1.51,0.199-2.216c2.131-9.108,5.531-17.647,12.229-24.403c3.844-3.877,8.116-7.331,12.221-10.946
			c3.608-3.178,7.375-6.187,10.851-9.501c5.827-5.556,11.677-11.113,16.408-17.696c1.332,1.529,0.671,3.347,0.529,4.984
			c-0.292,3.366-0.681,6.754-1.433,10.041c-0.914,3.997-1.523,8.05-2.656,12.026c-0.945,3.318-2.242,6.504-3.188,9.812
			c-0.736,2.571-1.962,5-2.943,7.502c-0.746,1.903-1.404,3.842-2.2,5.724c-0.306,0.723-1.063,1.269-1.313,1.999
			c-1.835,5.34-5.134,9.865-7.997,14.636c-2.665,4.44-6.441,7.895-10.049,11.496C63.959,172.74,63.06,173.086,62.288,173.559z"/>
		<path style="fill:#FEDBD0;" d="M508.133,426.487c2.977,4.682,6.698,8.658,11.563,11.948c-0.643,0.857-1.196,1.643-1.799,2.388
			c-4.06,5.019-8.836,9.216-14.251,12.749c-3.794,2.475-7.869,4.315-12.08,5.845c-8.754,3.18-16.962,1.421-24.394-3.67
			c-4.084-2.797-7.631-6.378-11.421-9.605c0.51-0.232,1.208-0.327,1.499-0.721c1.406-1.904,3.562-2.659,5.458-3.826
			c0.553-0.341,0.885-1.041,1.319-1.576c2.188-1.133,4.354-2.31,6.567-3.391c5.425-2.651,10.837-5.319,16.666-7.044
			c1.654-0.49,3.333-0.605,4.974-0.974C497.478,427.431,502.816,427.058,508.133,426.487z"/>
		<path style="fill:#FEDAD0;" d="M586.228,424.104c-3.488,2.388-6.878,4.937-10.487,7.127c-5.47,3.32-11.172,6.215-17.151,8.551
			c-10.612,4.146-21.13,3.656-31.595-0.488c-0.995-0.394-1.908-0.993-3.08-1.615c0.824-1.313,1.713-2.492,2.352-3.795
			c1.274-2.598,2.411-5.263,3.604-7.9c5.575,0.006,11.151,0.061,16.726-0.003c2.524-0.029,5.044-0.372,7.568-0.427
			c1.561-0.034,3.128,0.21,4.693,0.321c0.579,0.041,1.161,0.112,1.738,0.083c2.645-0.133,5.286-0.381,7.931-0.43
			c5.194-0.097,10.349-0.52,15.467-1.418C584.717,423.983,585.482,424.1,586.228,424.104z"/>
		<path style="fill:#57829B;" d="M595.508,384.932c1.815-0.428,3.265-0.768,4.714-1.114c1.426-0.341,2.629-0.045,3.518,1.197
			c0.932,1.301,0.614,2.648-0.249,3.691c-1.258,1.521-2.76,2.843-4.187,4.221c-0.475,0.459-1.03,0.837-1.562,1.234
			c-0.678,0.505-1.005,1.152-0.635,1.948c0.77,1.659,0.227,2.937-1.15,3.892c-1.168,0.81-2.502,0.376-4.104-1.156
			c-0.049-0.047-0.145-0.046-0.414-0.123c-1.114,0.772-2.349,1.596-3.549,2.469c-1.042,0.758-2.035,0.944-3.203,0.204
			c-1.139-0.721-1.505-1.711-1.397-2.964c0.128-1.487,0.271-2.972,0.428-4.683c-0.666-0.273-1.329-0.554-1.999-0.816
			c-0.692-0.271-1.439-0.442-2.076-0.806c-0.871-0.497-1.611-2.212-1.29-3.033c0.402-1.03,1.054-1.877,2.306-2.007
			c1.484-0.154,2.961-0.413,4.449-0.496c1.31-0.073,2.229-0.56,2.663-1.83c0.614-1.798,1.3-3.576,1.818-5.402
			c0.548-1.934,1.235-2.706,2.722-2.679c1.553,0.028,2.468,0.811,2.643,2.367C595.164,380.934,595.312,382.83,595.508,384.932z"/>
		<path style="fill:#FFDBD0;" d="M679.519,286c0.108-0.122,0.301-0.237,0.313-0.368c0.295-3.189,2.406-4.924,4.992-6.292
			c2.894-1.531,6.609-1.066,8.966,1.22c1.118,1.084,2.116,2.292,3.167,3.444c0.21,2.046,0.38,4.055-0.5,6.05
			c-0.792,1.796-1.886,3.3-3.361,4.563c-3.053,2.614-8.671,1.698-11.324-1.697C680.193,290.899,679.247,288.639,679.519,286z"/>
		<path style="fill:#FFDBD0;" d="M399.984,401.48c-0.98,1.188-1.773,2.453-3.038,3.493c-3.249,2.669-9.556,2.281-12.174-3.489
			c-0.102-0.224-0.263-0.498-0.21-0.701c0.58-2.245-0.561-4.766,1.13-6.849c0.273-0.336,0.216-0.939,0.311-1.419
			c2.228-1.387,4.446-2.753,7.14-3.131c2.257-0.316,5.279,1.324,6.532,3.238c1.12,1.71,1.57,3.454,1.299,5.379
			C400.807,399.183,400.324,400.321,399.984,401.48z"/>
		<path style="fill:#FFDCD2;" d="M213.509,40.911c-0.043,3.297-1.593,5.273-5.226,6.667c-2.498,0.958-5.383,0.277-7.226-1.831
			c-1.747-1.998-1.297-4.292-0.21-6.285c1.408-2.583,3.453-4.706,6.524-5.319c1.683-0.336,3.218-0.432,4.408,1.725
			C213.271,38.574,213.538,38.724,213.509,40.911z"/>
		<path style="fill:#FFDCD2;" d="M226.52,27.306c-0.077,3.788-1.543,6.037-4.227,7.485c-1.964,1.059-3.927,0.452-5.076-1.49
			c-0.29-0.491-0.386-1.137-0.762-1.531c-1.249-1.31-2.376-2.716-1.689-4.604c1.029-2.83,2.776-5.034,6.019-5.512
			c1.621-0.239,4.07,0.974,4.756,2.528C226.066,25.368,226.328,26.671,226.52,27.306z"/>
		<path style="fill:#5C869F;" d="M152.43,22.412c-1.103-0.103-3.09-0.212-5.051-0.501c-1.318-0.194-2.346-1.472-2.427-2.753
			c-0.085-1.342,0.678-2.156,1.813-2.698c0.15-0.071,0.305-0.146,0.466-0.175c3.945-0.723,7.914-1.087,11.871-0.226
			c1.708,0.372,2.184,1.17,2.234,2.828c0.052,1.73-0.542,2.696-2.314,3.001C157.153,22.21,155.229,22.208,152.43,22.412z"/>
		<path style="fill:#5C869F;" d="M124.57,23.154c-1.525-0.161-2.867-0.561-3.649-2.098c-1.006-1.979-0.044-4.159,2.162-4.492
			c1.129-0.17,2.297-0.083,3.447-0.113c2.488,0.067,4.981,0.065,7.462,0.234c0.943,0.064,2.08,0.279,2.725,0.868
			c0.648,0.591,1.211,1.808,1.065,2.616c-0.24,1.323-1.357,2.318-2.768,2.55c-1.469,0.241-2.975,0.295-4.468,0.348
			C128.556,23.137,126.563,23.128,124.57,23.154z"/>
		<path style="fill:#5E879F;" d="M176.701,23.182c-1.883-0.176-3.793-0.21-5.64-0.568c-1.749-0.339-2.467-1.419-2.414-2.954
			c0.047-1.363,0.82-2.302,2.393-2.75c0.707-0.201,1.458-0.28,2.195-0.339c2.39-0.19,4.784-0.49,7.175-0.471
			c2.374,0.018,4.077,2.479,3.483,4.667c-0.312,1.148-0.943,1.934-2.204,2.01c-1.653,0.1-3.308,0.17-4.962,0.253
			C176.717,23.081,176.709,23.131,176.701,23.182z"/>
		<path style="fill:#5E879F;" d="M136.796,28.81c0.967-0.186,1.929-0.476,2.904-0.534c1.708-0.101,3.445-0.225,5.127-0.009
			c0.874,0.112,1.954,0.673,1.975,1.921c0.024,1.419,0.036,2.869-1.414,3.739c-0.355,0.213-0.724,0.528-1.105,0.556
			c-3.042,0.223-6.101,0.645-9.127,0.484c-2.105-0.112-3.408-2.712-2.751-4.445c0.472-1.243,1.358-1.851,2.629-1.934
			c0.573-0.038,1.154,0.042,1.732,0.069C136.776,28.708,136.786,28.759,136.796,28.81z"/>
		<path style="fill:#5C869F;" d="M160.194,35.075c-2.225-0.082-4.369-0.296-6.201-1.655c-1.802-1.338-1.842-3.448-0.132-4.86
			c0.306-0.253,0.698-0.499,1.077-0.55c2.888-0.386,5.778-0.542,8.578,0.503c0.529,0.197,1.049,0.53,1.455,0.922
			c1.774,1.717,1.391,4.094-0.899,4.945C162.862,34.831,161.492,34.857,160.194,35.075z"/>
		<path style="fill:#FFDCD2;" d="M229.836,41.268c-0.774,3.881-1.919,5.51-3.868,5.576c-2.86,0.098-4.626-1.261-5.31-4.087
			c-0.427-1.763,0.54-3.845,2.128-4.582C225.228,37.042,227.084,37.833,229.836,41.268z"/>
		<path style="fill:#FCDACF;" d="M95.951,65.557c-3.263-0.915-6.698-1.366-9.497-3.529c2.653-1.208,5.307-2.415,7.959-3.624
			C94.925,60.788,95.438,63.173,95.951,65.557z"/>
		<path style="fill:#648CA3;" d="M92.031,187.654c-0.29,1.991-0.517,3.458-2.136,4.172c-1.599,0.705-3.064-0.047-3.279-1.759
			c-0.181-1.439,0.107-2.785,1.023-3.964c0.764-0.984,2.038-1.335,2.852-0.848C91.316,185.751,91.666,187.039,92.031,187.654z"/>
		<path style="fill:#648CA3;" d="M474.7,391.795c-0.27,2.254-2.196,4.159-3.992,3.949c-1.37-0.16-2.263-1.251-2.086-2.549
			c0.267-1.961,2.36-3.849,4.079-3.678C474.094,389.654,474.853,390.518,474.7,391.795z"/>
		<path style="fill:#648CA3;" d="M79.951,192.555c-0.054,1.803-1.449,3.546-2.855,3.568c-1.424,0.022-2.734-1.599-2.673-3.307
			c0.061-1.716,1.422-3.423,2.687-3.37C78.839,189.517,80.003,190.792,79.951,192.555z"/>
		<path style="fill:#6F92A7;" d="M83.86,178.464c-0.065,1.99-0.618,2.681-2.153,3.191c-1.638,0.544-3.504,0.24-4.187-0.682
			c-0.67-0.905-0.313-2.784,0.688-3.625c1.044-0.876,3.598-1.055,4.703-0.193C83.425,177.554,83.71,178.247,83.86,178.464z"/>
		<path style="fill:#648CA3;" d="M715.687,356.187c0.347,1.587-0.356,2.857-1.195,4.107c-0.56,0.834-1.247,1.27-2.278,1.028
			c-0.946-0.222-1.79-0.693-1.891-1.687c-0.104-1.019,0.107-2.071,0.18-3.108c0.053-0.063,0.104-0.129,0.16-0.19
			C712.825,354.041,713.394,354.024,715.687,356.187z"/>
		<path style="fill:#6F92A7;" d="M706.431,353.246c-1.644,0.036-3.161-1.439-3.192-3.104c-0.028-1.499,1.198-2.548,3.001-2.567
			c1.618-0.017,3.153,1.284,3.199,2.789C709.497,352.23,708.324,352.957,706.431,353.246z"/>
		<path style="fill:#6F92A7;" d="M165.25,85.484c0.012,1.779-1.184,2.75-3.364,2.728c-1.811-0.018-2.755-0.96-2.733-2.73
			c0.02-1.614,1.112-2.598,2.933-2.641C164.046,82.795,165.238,83.791,165.25,85.484z"/>
		<path style="fill:#6F92A7;" d="M168.011,77.848c-1.383-0.051-2.715-1.28-2.637-2.431c0.129-1.881,1.706-3.129,3.86-3.054
			c1.592,0.055,2.279,0.878,2.197,2.633C171.352,76.698,169.889,77.918,168.011,77.848z"/>
		<path style="fill:#6F92A7;" d="M703.429,358.623c1.516,3.137,0.082,5.365-3.374,5.289c-1.177-0.026-1.923-0.435-1.971-1.714
			c-0.028-0.747-0.074-1.493-0.112-2.241c1.107-1.124,2.482-1.565,4.025-1.576c0.175,0.01,0.35,0.019,0.525,0.029
			C702.824,358.482,703.126,358.552,703.429,358.623z"/>
		<path style="fill:#89A4B5;" d="M467.434,86.104c0.019,1.261-1.187,2.626-2.37,2.682c-1.417,0.067-2.813-1.272-2.897-2.78
			c-0.075-1.345,0.843-2.312,2.233-2.351C466.233,83.604,467.41,84.554,467.434,86.104z"/>
		<path style="fill:#FEDBD0;" d="M702.521,358.411c-0.175-0.009-0.35-0.019-0.525-0.029
			C702.171,358.391,702.346,358.401,702.521,358.411z"/>
		<path style="fill:#B2CDDD;" d="M223.597,473.045c-0.512-6.061-1.633-11.978-4.77-17.286c-1.465-2.479-3.282-4.749-4.939-7.113
			c4.654-0.328,9.281-0.385,13.788,1.146c0.932,0.317,1.925,0.51,2.906,0.615c4.351,0.469,7.965,2.621,11.503,4.953
			c1.017,0.67,1.987,1.413,2.979,2.123c-0.421,0.461-0.758,1.086-1.279,1.356c-4.186,2.163-7.941,4.946-11.694,7.767
			c-2.3,1.728-4.625,3.375-6.56,5.537C225.093,472.629,224.252,472.754,223.597,473.045z"/>
		<path style="fill:#FFDBD0;" d="M374.574,414.469c4.315,0.007,7.099,1.846,9.196,4.716c1.264,1.73,1.05,3.882,0.424,5.764
			c-1.143,3.436-3.161,6.184-6.93,7.218c-1.107,0.304-2.105,1.063-3.217,1.279c-3.452,0.671-5.844-1.374-7.022-4.184
			c-1.933-4.612-0.308-10.549,3.652-13.647C371.99,414.587,373.549,414.408,374.574,414.469z"/>
		<path style="fill:#B4CFDE;" d="M335.508,474.487c-2.846,4.805-6.708,8.808-10.273,13.047c-0.69,0.82-1.222,1.771-1.845,2.649
			c-1.402,1.974-3.702,2.424-5.65,1.118c-1.385-0.929-1.593-4.288-0.312-5.917c0.87-1.105,1.82-2.147,2.752-3.203
			c2.797-3.169,5.596-6.336,8.407-9.493c0.802-0.9,1.646-1.763,2.471-2.642c0.73-0.128,1.455-0.312,2.191-0.373
			c1.829-0.152,2.838,0.825,2.697,2.636C335.89,473.042,335.66,473.761,335.508,474.487z"/>
		<path style="fill:#FFDCD2;" d="M362.353,396.023c3.625,0.148,7.328,3.709,7.553,7.026c0.016,0.241,0.029,0.542-0.094,0.722
			c-1.588,2.341-2.648,5.124-5.925,5.903c-1.34,0.319-2.413,0.079-3.215-0.684c-1.426-1.356-2.685-2.909-3.883-4.48
			c-1.141-1.496-1.042-3.148,0.051-4.639C358.286,397.901,360.089,396.395,362.353,396.023z"/>
		<path style="fill:#B7D0DE;" d="M365.213,491.997c-2.923,0.011-4.061-1.133-3.662-3.836c0.188-1.269,0.596-2.692,1.385-3.648
			c2.256-2.732,4.501-5.508,7.436-7.601c2.437-1.738,4.98-1.037,5.309,1.618c0.102,0.82-0.158,1.866-0.631,2.545
			c-2.263,3.244-4.637,6.413-7.017,9.575C367.307,491.615,366.344,492.264,365.213,491.997z"/>
		<path style="fill:#B7D0DE;" d="M345.5,467.459c-2.654,0.057-4.406-1.231-4.777-3.208c-0.12-0.641,0.009-1.577,0.414-2.029
			c2.596-2.899,5.285-5.716,7.986-8.519c0.445-0.463,1.105-0.714,1.651-1.085c1.131-0.771,2.18-0.518,3.214,0.206
			c1.045,0.731,1.135,1.807,0.959,2.898c-0.359,2.215-1.79,3.89-3.09,5.585c-1.255,1.636-2.622,3.204-4.082,4.659
			C347.014,466.724,345.947,467.175,345.5,467.459z"/>
		<path style="fill:#B7D0DE;" d="M362.953,467.481c-2.726-0.059-4.533-2.69-3.744-5.101c0.43-1.314,1.096-2.661,2.005-3.683
			c1.368-1.538,2.89-3.059,4.636-4.101c1.254-0.749,3.001-1.022,4.494-0.932c1.821,0.11,2.8,2.638,1.747,4.331
			c-0.991,1.594-1.889,3.258-3.578,4.394c-1.045,0.703-1.697,2-2.499,3.05C365.122,466.607,364.051,467.439,362.953,467.481z"/>
		<path style="fill:#B7D0DE;" d="M346.953,489.988c-0.389,0.126-0.788,0.224-1.164,0.382c-1.732,0.724-3.623,0.453-4.766-0.701
			c-0.755-0.762-0.782-3.373,0.021-4.694c0.423-0.696,0.978-1.312,1.474-1.965c0.473-0.289,1.11-0.468,1.391-0.887
			c1.734-2.582,4.36-3.985,6.856-5.494c2.881,1.421,3.464,2.328,2.74,4.45c-0.288,0.844-0.712,1.688-1.258,2.389
			C350.53,485.678,348.725,487.82,346.953,489.988z"/>
		<path style="fill:#B2CDDD;" d="M57.51,457.612c-0.725,0.387-1.413,0.888-2.182,1.141c-5.545,1.826-10.189,5.148-14.687,8.726
			c-0.315,0.251-0.713,0.398-1.073,0.593c-0.061-0.064-0.122-0.126-0.184-0.188c0.378-0.802,0.647-1.682,1.152-2.394
			c2.752-3.881,5.562-7.72,8.352-11.574c0.196,1.12,1.068,0.99,1.89,1.103C53.216,455.355,55.594,455.898,57.51,457.612z"/>
		<path style="fill:#FFDCD2;" d="M258.519,404.35c-0.265,1.012-0.55,2.652-1.132,4.179c-0.644,1.691-2.78,2.253-4.319,1.322
			c-3.838-2.322-3.906-7.222-0.075-9.473c1.2-0.705,2.55-0.561,3.806,0.046C258.187,401.095,258.522,402.328,258.519,404.35z"/>
		<path style="fill:#FFDCD2;" d="M58.6,332.178c1.029,0.544,1.983,0.791,2.558,1.397c2.161,2.278,1.034,7.392-1.866,8.697
			c-0.412,0.186-1.03,0.255-1.425,0.083c-2.466-1.071-4.116-2.687-3.115-5.784c0.278-0.859,0.5-1.845,1.077-2.469
			C56.563,333.309,57.632,332.825,58.6,332.178z"/>
		<path style="fill:#FFDCD2;" d="M250.5,389.063c-0.032,2.043-2.689,4.41-4.94,4.402c-1.479-0.005-3.362-2.436-3.41-4.401
			c-0.053-2.167,1.768-3.615,4.485-3.568C249.058,385.537,250.534,386.9,250.5,389.063z"/>
		<path style="fill:#FFDCD2;" d="M61.601,327.004c-2.101-0.055-3.633-1.703-3.596-3.868c0.028-1.675,1.79-4.093,2.953-4.053
			c3.071,0.105,4.961,1.734,5.002,4.311C65.986,324.993,63.497,327.054,61.601,327.004z"/>
		<path style="fill:#5E879F;" d="M270.464,437.199c-0.074,1.702-1.733,3.845-3.338,4.195c-1.004,0.219-1.98,0.172-2.694-0.786
			c-0.887-1.19-1.42-2.497-0.845-3.92c0.328-0.812,0.93-1.582,1.586-2.177c0.994-0.901,2.15-1.678,3.602-0.953
			C269.888,434.116,270.534,435.583,270.464,437.199z"/>
		<path style="fill:#FFDCD2;" d="M49.444,328.503c-2.107-0.013-3.967-1.718-3.908-3.581c0.053-1.672,2.226-3.873,3.86-3.909
			c2.15-0.048,4.112,1.763,4.089,3.776C53.461,326.891,51.693,328.516,49.444,328.503z"/>
		<path style="fill:#5D859D;" d="M286.407,433.003c-0.038,2.102-1.875,3.799-4.097,3.782c-1.9-0.014-3.265-1.56-3.191-3.616
			c0.07-1.971,2.163-4.021,4.041-3.957C284.739,429.266,286.438,431.25,286.407,433.003z"/>
		<path style="fill:#FCF4F2;" d="M241.5,406.321c-0.008,2.273-1.79,4.134-3.976,4.153c-1.799,0.015-2.975-1.393-3.036-3.476
			c-0.072-2.41,0.676-3.852,4.173-3.984C240.957,402.926,241.509,403.623,241.5,406.321z"/>
		<path style="fill:#5E879F;" d="M265.936,450.53c0.663,1.477-0.088,2.766-0.685,3.985c-0.662,1.351-3.405,1.914-4.439,0.312
			c-0.486-0.754-0.896-1.557-1.34-2.338c0.027-0.161,0.077-0.321,0.078-0.482c0.005-1.561,0.793-2.748,2.171-3.216
			c1.382-0.47,2.73,0.014,3.716,1.205C265.592,450.184,265.769,450.353,265.936,450.53z"/>
		<path style="fill:#5E879F;" d="M298.765,440.674c1.714-0.007,3.078,1.376,3.141,3.186c0.065,1.862-1.575,3.436-3.519,3.378
			c-1.716-0.052-3.134-1.535-3.102-3.246C295.314,442.393,297.109,440.681,298.765,440.674z"/>
		<path style="fill:#5E879F;" d="M282.445,450.687c0.463,0.342,0.949,0.658,1.385,1.031c1.197,1.024,1.613,2.333,1.157,3.529
			c-0.5,1.314-2.117,2.391-3.526,2.301c-1.144-0.073-2.149-0.514-2.592-1.627c-0.515-1.295-0.507-2.629,0.49-3.73
			c0.49-0.54,1.145-0.931,1.725-1.388C281.538,450.765,281.992,450.726,282.445,450.687z"/>
		<path style="fill:#5E879F;" d="M155.608,367.116c-0.458,1.725-0.716,3.109-2.001,3.99c-1.334,0.914-2.513,0.871-3.589-0.168
			c-1.084-1.047-1.238-2.258-0.306-3.553c0.524-0.728,1.173-1.397,1.873-1.959c0.812-0.652,1.865-1.011,2.735-0.271
			C154.944,365.685,155.266,366.57,155.608,367.116z"/>
		<path style="fill:#648CA3;" d="M275.434,449.995c-0.544,1.018-0.621,2.398-2.288,2.46c-1.627,0.06-2.849-0.425-3.551-1.953
			c-0.009-0.574-0.08-1.155-0.016-1.721c0.219-1.933,1.62-3.182,3.424-3.108c1.562,0.064,2.446,1.248,2.477,3.336
			C275.485,449.337,275.45,449.666,275.434,449.995z"/>
		<path style="fill:#648CA3;" d="M291.468,450.941c-1.29,0.487-2.489,0.34-3.583-0.518c-0.97-2.772-0.614-3.836,1.427-5.153
			c1.211-0.782,2.179-0.419,3.161,0.28c1.001,0.713,1.325,1.786,0.845,2.838C292.889,449.326,292.099,450.097,291.468,450.941z"/>
		<path style="fill:#648CA3;" d="M281.534,440.653c1.544-0.012,2.727,1.275,2.695,2.933c-0.03,1.558-1.463,2.836-3.168,2.825
			c-1.485-0.01-2.853-1.174-2.926-2.491C278.046,442.311,279.756,440.667,281.534,440.653z"/>
		<path style="fill:#648CA3;" d="M293.736,431.112c1.644,0.208,2.646,1.505,2.404,3.111c-0.277,1.838-1.463,3.036-2.797,2.827
			c-1.772-0.278-3.009-1.846-2.752-3.487C290.845,431.948,292.171,430.914,293.736,431.112z"/>
		<path style="fill:#6F92A7;" d="M144.977,362.46c-1.284,0.003-2.211-1.012-2.219-2.432c-0.009-1.629,1.941-3.391,3.673-3.32
			c1.078,0.044,2.325,1.345,2.371,2.474C148.859,360.548,146.633,362.455,144.977,362.46z"/>
		<path style="fill:#89A4B5;" d="M142.337,373.385c-1.274-0.011-2.612-1.275-2.632-2.489c-0.019-1.144,1.787-2.757,3.071-2.743
			c1.145,0.013,2.598,1.261,2.59,2.226C145.353,371.978,143.923,373.398,142.337,373.385z"/>
		<path style="fill:#89A4B5;" d="M260.284,351.387c1.441-1.797,2.326-2.231,3.551-1.71c1.014,0.432,1.566,1.308,1.519,2.357
			c-0.054,1.195-1.082,1.622-2.067,1.854C261.961,354.201,261.245,353.576,260.284,351.387z"/>
		<path style="fill:#FFDBD0;" d="M687.953,258.662c0.184,2.684-1.252,4.747-2.973,6.466c-0.822,0.822-2.361,1.023-3.621,1.293
			c-3.913,0.837-7.379-1.749-7.867-5.768c-0.07-0.573-0.11-1.162-0.279-1.707c-0.399-1.282-0.045-2.251,1.001-3.064
			c0.653-0.508,1.315-1.051,1.817-1.699c1.481-1.911,3.568-2.607,5.793-3.048c1.66-0.329,4.138,1.025,4.814,2.574
			c0.432,0.989,0.967,1.945,1.281,2.969C688.106,257.285,687.953,257.997,687.953,258.662z"/>
		<path style="fill:#5C869F;" d="M693.738,61.536c0.761-1.241,1.446-2.537,2.303-3.708c1.072-1.466,2.736-2.14,4.435-2.212
			c1.8-0.076,3.329,1.049,4.375,2.397c1.581,2.037,2.305,4.335,0.781,6.845c-0.418,0.689-0.583,1.533-0.865,2.303
			c-0.695,0.639-1.363,1.309-2.086,1.916c-2.777,2.33-5.518,1.426-8.119-0.281c-0.557-0.366-0.947-1.351-0.982-2.072
			C693.496,65.001,693.669,63.266,693.738,61.536z"/>
		<path style="fill:#FFDCD2;" d="M674.98,277.898c0.008,2.897-1.771,4.999-4.227,5.107c-3.563,0.156-5.811-1.912-6.202-4.8
			c-0.252-1.865,1.474-4.287,3.521-5.146c0.605-0.254,1.26-0.442,1.909-0.526c2.862-0.371,4.606,0.992,4.99,3.872
			C675.036,276.894,674.98,277.4,674.98,277.898z"/>
		<path style="fill:#5E879F;" d="M689.197,63.848c0.15,0.167,0.3,0.333,0.45,0.5c-0.373,1.734-0.746,3.469-1.119,5.203
			c-0.988,1.397-2.129,2.553-4.01,2.543c-0.907-1.018-2.066-0.49-3.135-0.51c-1.297-0.13-1.819-1.133-2.372-2.102
			c-0.481-1.53-0.23-3.078-0.109-4.623c0.036-0.126,0.101-0.235,0.193-0.327c0.893-0.081,0.916-0.759,0.969-1.416
			c0,0,0.077-0.042,0.076-0.043c0.299-0.323,0.598-0.646,0.897-0.969c0.409-0.103,0.817-0.206,1.226-0.307
			c1.41,0.07,2.819,0.138,4.228,0.207c0.16,0.026,0.311,0.079,0.453,0.158c0.355,0.614,0.709,1.228,1.063,1.842
			c-0.23,0.211-0.46,0.422-0.69,0.632c0.102,0.07,0.205,0.141,0.308,0.211c0.122-0.286,0.244-0.572,0.366-0.858
			C688.394,63.944,688.795,63.896,689.197,63.848z"/>
		<path style="fill:#FFDCD2;" d="M527.339,84.377c0.533,2.486-0.006,4.507-1.692,6.261c-0.917,0.954-1.881,1.441-3.254,1.4
			c-2.793-0.083-4.373-1.89-3.861-4.666c0.071-0.386,0.252-0.793,0.498-1.098C520.956,83.88,524.37,83.08,527.339,84.377z"/>
		<path style="fill:#FFDCD2;" d="M534.506,93.402c0.011-2.33,1.247-3.337,4.156-3.385c1.835-0.031,3.409,1.801,3.324,3.867
			c-0.08,1.928-1.823,3.604-3.743,3.599C536.216,97.478,534.496,95.599,534.506,93.402z"/>
		<path style="fill:#FFDCD2;" d="M532.282,81.987c-1.448,0.001-3.232-1.743-3.266-3.194c-0.057-2.407,1.77-4.25,4.194-4.231
			c1.578,0.012,2.82,1.578,2.792,3.518C535.971,80.233,534.302,81.985,532.282,81.987z"/>
		<path style="fill:#5E879F;" d="M592.03,68.512c-1.992,0.011-3.219-1.065-3.284-2.882c-0.052-1.456,2.443-3.753,4.044-3.722
			c1.632,0.032,2.903,1.236,2.913,2.761C595.716,66.68,593.976,68.501,592.03,68.512z"/>
		<path style="fill:#5E879F;" d="M597.754,51.569c2.953-1.479,4.938-0.479,5.794,2.92c-0.691,1.256-1.594,2.21-3.032,2.693
			c-1.378,0.463-2.401,0.016-3.332-0.883c-0.914-0.884-0.738-1.926-0.281-2.959C597.168,52.741,597.469,52.159,597.754,51.569z"/>
		<path style="fill:#5E879F;" d="M569.471,48.992c0.09-0.318,0.152-0.648,0.276-0.953c0.583-1.438,1.453-2.813,3.06-2.929
			c1.513-0.11,2.468,1.136,3.206,2.389c-0.211,0.953-0.189,2.058-0.688,2.823c-0.793,1.217-2.074,1.933-3.644,1.626
			C570.084,51.636,569.692,50.363,569.471,48.992z"/>
		<path style="fill:#648CA3;" d="M582.724,47.096c0.311-0.086,0.625-0.164,0.934-0.259c2.438-0.757,2.937-0.57,4.426,1.665
			c-0.441,1.138-0.775,2.334-1.355,3.396c-0.544,0.994-1.539,1.594-2.715,1.322c-1.351-0.313-2.618-2.076-2.384-3.409
			C581.794,48.871,582.345,47.999,582.724,47.096z"/>
		<path style="fill:#648CA3;" d="M550.016,55.505c-0.038-1.376-0.206-2.724,1.065-3.805c2.046-1.74,3.952-1.505,5.366,0.809
			c0.112,1.763-0.341,3.202-2.125,3.974C552.582,57.237,551.517,57.021,550.016,55.505z"/>
		<path style="fill:#648CA3;" d="M581.206,75.488c-1.98,0.033-3.398-1.209-3.503-3.07c-0.089-1.573,1.532-3.247,3.145-3.246
			c1.552,0.001,3.415,1.81,3.451,3.352C584.333,73.942,582.746,75.463,581.206,75.488z"/>
		<path style="fill:#648CA3;" d="M566.908,56.35c0.038,2.18-1.207,3.661-3.099,3.687c-1.746,0.023-2.753-1.092-2.76-3.059
			c-0.007-1.982,1.647-3.67,3.576-3.65C565.837,53.34,566.879,54.72,566.908,56.35z"/>
		<path style="fill:#6F92A7;" d="M638.854,106.441c-0.259-0.166-1.118-0.487-1.628-1.099c-0.782-0.94-0.492-2.004,0.23-2.938
			c1.142-1.48,3.097-2.116,4.584-1.489c1.328,0.56,1.606,1.107,1.281,2.523C642.963,104.999,641.188,106.383,638.854,106.441z"/>
		<path style="fill:#648CA3;" d="M652.605,100.297c1.694,0.037,2.675,0.84,2.707,2.215c0.045,1.926-1.946,3.865-3.842,3.744
			c-1.583-0.102-2.416-0.986-2.4-2.548C649.09,101.852,650.744,100.256,652.605,100.297z"/>
		<path style="fill:#5E879F;" d="M569.716,73.142c-0.018,1.987-1.632,3.522-3.686,3.505c-1.147-0.009-2.372-1.389-2.359-2.658
			c0.021-1.981,1.526-3.696,3.242-3.694C568.446,70.297,569.73,71.602,569.716,73.142z"/>
		<path style="fill:#648CA3;" d="M555.283,62.949c1.785-0.038,3.151,1.104,3.212,2.685c0.064,1.637-1.283,3.047-2.885,3.02
			c-2.019-0.034-3.136-0.989-3.151-2.694C552.444,64.119,553.505,62.987,555.283,62.949z"/>
		<path style="fill:#648CA3;" d="M645.861,94.201c-1.549-0.173-2.457-1.2-2.339-2.645c0.137-1.676,1.799-3.013,3.474-2.796
			c1.639,0.212,2.611,1.328,2.469,2.832C649.315,93.175,647.627,94.398,645.861,94.201z"/>
		<path style="fill:#6F92A7;" d="M575.49,67.397c-1.578-0.025-2.573-1.091-2.56-2.739c0.013-1.644,1.373-3.046,2.965-3.059
			c1.232-0.009,2.569,1.465,2.58,2.845C578.488,66.149,577.198,67.425,575.49,67.397z"/>
		<path style="fill:#6F92A7;" d="M578.98,56.352c-0.051,1.584-1.244,2.643-2.981,2.646c-1.59,0.003-2.47-0.876-2.441-2.438
			c0.034-1.839,1.409-3.106,3.23-2.978C578.227,53.683,579.034,54.702,578.98,56.352z"/>
		<path style="fill:#6F92A7;" d="M699.996,169.283c0.219-2.042,0.714-2.749,2.156-2.634c2.067,0.165,3.101,0.818,3.13,2.379
			c0.029,1.581-1.219,2.936-2.719,2.952C701.001,171.997,699.976,170.919,699.996,169.283z"/>
		<path style="fill:#89A4B5;" d="M588.608,60.02c-1.381,0.044-2.985-1.249-2.988-2.407c-0.003-1.268,1.788-2.978,3.173-3.028
			c1.281-0.047,2.569,1.349,2.589,2.806C591.398,58.672,590.025,59.975,588.608,60.02z"/>
		<path style="fill:#89A4B5;" d="M688.527,69.551c0.373-1.734,0.746-3.468,1.119-5.203c0.194,0.138,0.504,0.239,0.56,0.42
			C690.543,65.843,689.552,68.585,688.527,69.551z"/>
		<path style="fill:#89A4B5;" d="M678.901,64.859c-0.121,1.545-0.372,3.093,0.109,4.623
			C677.294,67.883,677.27,66.862,678.901,64.859z"/>
		<path style="fill:#89A4B5;" d="M686.491,62.005c-1.409-0.069-2.818-0.137-4.228-0.207
			C684.104,60.734,685.311,60.793,686.491,62.005z"/>
		<path style="fill:#89A4B5;" d="M688.008,64.006c-0.354-0.614-0.709-1.228-1.063-1.842c1.514-0.458,1.801,0.722,2.252,1.685
			c-0.401,0.047-0.802,0.095-1.204,0.143L688.008,64.006z"/>
		<path style="fill:#89A4B5;" d="M681.382,71.584c1.069,0.02,2.228-0.508,3.135,0.51C683.368,72.568,682.241,72.898,681.382,71.584z
			"/>
		<path style="fill:#89A4B5;" d="M680.064,63.117c-0.054,0.657-0.076,1.335-0.969,1.416
			C678.936,63.731,678.999,63.081,680.064,63.117z"/>
		<path style="fill:#89A4B5;" d="M681.037,62.105c-0.299,0.323-0.598,0.646-0.897,0.969
			C680.439,62.751,680.738,62.428,681.037,62.105z"/>
		<path style="fill:#FDFDFE;" d="M593.498,422.481c2.643-1.967,5.188-4.085,7.95-5.869c4.826-3.116,10.023-5.563,15.496-7.29
			c2.742-0.865,5.661-1.167,8.5-1.723c-2.26,1.482-4.49,3.011-6.786,4.435c-5.762,3.575-11.658,6.908-18.194,8.877
			C598.191,421.597,595.823,421.967,593.498,422.481z"/>
		<path style="fill:#B4CFDE;" d="M505.11,29.489c2.963,0.016,4.172,2.247,2.971,4.708c-1.159,2.375-2.592,4.623-3.984,6.878
			c-1.039,1.684-2.194,3.298-3.316,4.93c-0.939,1.365-2.389,1.878-3.812,1.384c-1.13-0.392-1.899-1.658-1.986-3.143
			c-0.115-1.975,0.144-3.737,1.701-5.241c0.92-0.888,1.599-2.101,2.15-3.279c1.026-2.194,2.88-3.634,4.524-5.257
			C503.948,29.886,504.855,29.625,505.11,29.489z"/>
		<path style="fill:#B4CFDE;" d="M470.871,45.496c-0.563-0.172-0.952-0.31-1.351-0.41c-2.474-0.621-3.466-2.702-2.387-5.027
			c1.807-3.892,4.476-7.135,7.631-9.99c0.529-0.479,1.263-0.842,1.96-1.001c2.136-0.486,3.375,0.574,3.26,2.788
			c-0.046,0.892-0.172,1.877-0.593,2.637C477.149,38.546,474.802,42.541,470.871,45.496z"/>
		<path style="fill:#B4CFDE;" d="M483.452,50.507c2.482-0.059,3.851,1.699,3.13,3.737c-0.744,2.103-1.728,4.148-2.833,6.089
			c-1.02,1.791-2.191,3.544-3.56,5.078c-2.616,2.932-4.512,2.501-6.064,0.173c-0.434-0.651-0.545-1.797-0.305-2.559
			c0.492-1.562,1.099-3.181,2.059-4.481c1.817-2.462,3.878-4.75,5.924-7.033C482.307,50.949,483.147,50.686,483.452,50.507z"/>
		<path style="fill:#648CA3;" d="M597.483,46.377c-2.165,0.023-3.467-1.244-3.438-3.344c0.022-1.563,1.394-2.883,3.053-2.937
			c1.646-0.053,3.196,1.585,3.253,3.437C600.412,45.536,599.586,46.355,597.483,46.377z"/>
		<path style="fill:#648CA3;" d="M561.771,44.979c-2.035,0.014-2.906-0.894-2.968-3.097c-0.043-1.537,1.417-3.062,2.947-3.077
			c1.4-0.014,3.338,1.805,3.38,3.174C565.175,43.412,563.433,44.967,561.771,44.979z"/>
		<path style="fill:#648CA3;" d="M578.863,36.717c0.01,2.003-0.802,2.75-2.948,2.713c-1.409-0.025-3.161-1.682-3.161-2.988
			c0-1.287,1.581-3.009,2.814-3.065C577.337,33.297,578.854,34.834,578.863,36.717z"/>
		<path style="fill:#648CA3;" d="M588.878,36.266c-0.016,1.473-1.732,3.136-3.265,3.164c-1.536,0.028-2.979-1.253-3.024-2.684
			c-0.052-1.664,1.652-3.404,3.285-3.355C587.752,33.447,588.898,34.543,588.878,36.266z"/>
		<path style="fill:#57829B;" d="M276.632,42.652c2.063-0.895,3.863-1.734,5.708-2.459c1.886-0.742,2.527-0.558,3.479,0.738
			c0.852,1.161,0.77,2.209-0.154,3.646c-1.3,2.022-2.544,4.081-3.81,6.125c-0.625,1.009-0.677,1.972,0.056,2.997
			c0.768,1.076,1.441,2.222,2.121,3.358c1.189,1.988,0.313,4.538-1.707,4.659c-0.88,0.053-1.873-0.426-2.675-0.9
			c-0.513-0.304-0.772-1.04-1.389-1.938c-0.85,1.475-1.404,2.369-1.891,3.299c-0.603,1.15-1.295,2.163-2.763,2.182
			c-1.405,0.018-1.933-1.025-2.539-2.058c-0.665-1.133-0.963-2.258-0.663-3.563c0.145-0.628,0.096-1.302,0.147-2.167
			c-0.957-0.334-1.871-0.659-2.789-0.973c-0.704-0.24-1.461-0.375-2.111-0.715c-2.26-1.182-2.589-3.381-0.659-5.026
			c1.058-0.901,2.319-1.615,3.586-2.202c1.145-0.53,1.668-1.207,1.547-2.48c-0.094-0.987-0.051-1.992-0.007-2.986
			c0.08-1.825,1.157-3.165,2.661-3.383c1.124-0.163,2.614,0.881,3.211,2.26C276.187,41.516,276.359,41.974,276.632,42.652z"/>
		<path style="fill:#EDD1CA;" d="M676.375,463.035c-1.33-0.165-2.321-0.213-3.273-0.429c-0.848-0.193-1.521-0.721-1.505-1.71
			c0.016-1.015,0.557-1.935,1.518-1.987c2.362-0.128,4.745-0.09,7.104,0.089c0.519,0.039,1.342,0.936,1.355,1.454
			c0.014,0.556-0.651,1.434-1.215,1.641C678.994,462.593,677.515,462.784,676.375,463.035z"/>
		<path style="fill:#EDD1CA;" d="M707.815,457.402c1.271,0.174,2.745,0.353,4.21,0.585c0.81,0.129,1.39,0.567,1.359,1.482
			c-0.03,0.897-0.622,1.374-1.424,1.445c-2.382,0.211-4.77,0.363-7.159,0.498c-1.207,0.068-1.898-0.673-2.005-1.764
			c-0.103-1.041,0.632-1.708,1.602-1.897C705.445,457.548,706.528,457.525,707.815,457.402z"/>
		<path style="fill:#EDD1CA;" d="M726.254,439.961c-1.297-0.094-2.132-0.084-2.94-0.23c-1.079-0.195-1.634-1.103-1.446-2.009
			c0.133-0.642,0.94-1.549,1.532-1.621c2.211-0.265,4.457-0.303,6.689-0.279c0.819,0.009,1.835,0.469,1.701,1.451
			c-0.092,0.674-0.755,1.594-1.369,1.807C728.955,439.59,727.366,439.746,726.254,439.961z"/>
		<path style="fill:#EDD1CA;" d="M698.203,450.972c-0.58,0-1.209,0.142-1.727-0.036c-0.633-0.219-1.599-0.652-1.655-1.091
			c-0.087-0.684,0.341-1.55,0.802-2.145c0.295-0.381,1.033-0.548,1.585-0.577c1.567-0.083,3.154-0.164,4.705,0.005
			c0.566,0.062,1.292,0.731,1.526,1.297c0.365,0.882-0.206,1.686-1.088,1.923c-1.345,0.361-2.742,0.525-4.117,0.773
			C698.224,451.071,698.214,451.021,698.203,450.972z"/>
		<path style="fill:#EDD1CA;" d="M715.076,480.338c-1.135,0-1.906,0.215-2.424-0.055c-0.648-0.338-1.446-1.033-1.518-1.651
			c-0.072-0.612,0.568-1.78,1.087-1.904c1.89-0.452,3.887-1.119,5.789-0.143c0.643,0.33,1.382,1.06,1.491,1.706
			c0.174,1.034-0.71,1.569-1.714,1.707C716.731,480.145,715.671,480.264,715.076,480.338z"/>
		<path style="fill:#EDD1CA;" d="M652.969,478.636c-1.25-0.064-2.178-0.031-3.074-0.181c-0.87-0.146-1.738-0.696-1.508-1.636
			c0.165-0.674,0.957-1.671,1.5-1.692c2.221-0.083,4.462,0.08,6.676,0.329c0.48,0.054,1.229,0.845,1.219,1.282
			c-0.011,0.471-0.695,1.191-1.214,1.333C655.303,478.419,653.961,478.496,652.969,478.636z"/>
		<path style="fill:#EDD1CA;" d="M709.683,489.446c0.787,0.211,1.882,0.354,2.833,0.801c1.011,0.476,1.098,1.653,0.147,2.201
			c-1.596,0.919-3.36,1.443-5.244,1.002c-0.962-0.225-1.728-0.773-1.698-1.861c0.029-1.04,0.724-1.662,1.699-1.888
			C708.06,489.553,708.733,489.547,709.683,489.446z"/>
		<path style="fill:#EDD1CA;" d="M735.998,451.944c-0.79-0.092-1.214-0.085-1.604-0.198c-1.005-0.291-1.885-0.81-1.904-1.985
			c-0.02-1.232,0.879-1.808,1.937-1.817c1.452-0.012,2.972,0.005,4.34,0.418c1.423,0.429,1.466,1.845,0.137,2.548
			C737.909,451.437,736.764,451.681,735.998,451.944z"/>
		<path style="fill:#EDD1CA;" d="M736.343,471.154c-2.273-0.125-3.097-0.611-3.183-1.997c-0.078-1.265,1.025-2.049,3.079-2.046
			c0.969,0.001,1.987,0.067,2.888,0.376c0.505,0.173,1.16,0.925,1.134,1.38c-0.034,0.591-0.556,1.402-1.089,1.659
			C738.326,470.935,737.296,470.964,736.343,471.154z"/>
		<path style="fill:#EDD1CA;" d="M685.329,480.831c-0.519-0.091-1.172-0.177-1.811-0.324c-0.899-0.207-1.443-0.763-1.482-1.72
			c-0.039-0.96,0.485-1.524,1.335-1.857c1.168-0.457,4.739,0.394,5.578,1.336c0.727,0.816,0.512,1.843-0.548,2.125
			C687.454,480.643,686.45,480.68,685.329,480.831z"/>
		<path style="fill:#EDD1CA;" d="M740.005,492.591c-1.484,2.038-4.82,2.573-6.338,1.091c-0.458-0.447-0.802-1.318-0.712-1.921
			c0.068-0.455,0.896-1.103,1.414-1.13C736.41,490.524,738.466,490.621,740.005,492.591z"/>
		<path style="fill:#EDD1CA;" d="M676.726,493.932c-1.711-0.04-3.084-1.214-3.063-2.22c0.021-0.962,1.182-1.772,2.604-1.715
			c0.987,0.039,2.016,0.066,2.934,0.373c0.515,0.172,1.134,0.88,1.173,1.388c0.036,0.475-0.525,1.241-1.011,1.458
			C678.403,493.646,677.313,493.785,676.726,493.932z"/>
		<path style="fill:#EDD1CA;" d="M645.368,489.612c0.633,0.063,1.151,0.028,1.608,0.179c0.814,0.269,1.658,0.774,1.413,1.727
			c-0.148,0.577-0.82,1.246-1.4,1.436c-0.992,0.324-2.103,0.442-3.152,0.39c-0.94-0.046-1.703-0.571-1.744-1.718
			c-0.038-1.047,0.646-1.474,1.465-1.719C644.18,489.719,644.849,489.691,645.368,489.612z"/>
		<path style="fill:#FCF4F2;" d="M96.503,69.024c2.996,1.067,3.344,3.719,3.401,6.258c0.095,4.194-1.093,8.114-3.416,11.65
			c-0.054-1.914,0.222-3.748,0.737-5.622c0.399-1.452,0.17-3.11,0.054-4.664C97.091,74.1,96.769,71.564,96.503,69.024z"/>
		<path style="fill:#5C869F;" d="M274.546,464.028c-0.023,2.518-1.747,4.264-4.225,4.279c-1.497,0.009-2.755-1.173-2.755-2.588
			c0-2.289,2.2-4.961,4.097-4.975C273.448,460.73,274.564,462.001,274.546,464.028z"/>
		<path style="fill:#5C869F;" d="M300.5,458.117c-0.01,1.443-1.51,2.701-3.254,2.729c-2.272,0.036-3.682-1.048-3.628-2.788
			c0.068-2.185,1.488-3.76,3.444-3.82C298.766,454.185,300.513,456.157,300.5,458.117z"/>
		<path style="fill:#5E879F;" d="M288.982,464.155c-0.042,2.309-0.991,3.358-2.981,3.296c-1.448-0.045-2.113-0.562-2.702-2.102
			c-0.46-1.2-0.029-2.816,1.055-3.791c0.917-0.825,2-1.185,3.198-0.77C288.663,461.172,289.02,462.107,288.982,464.155z"/>
		<path style="fill:#B7D0DE;" d="M54.996,442.505c-0.296,0.503-0.591,1.005-1.117,1.898c-0.385-1.33,0.001-1.917,0.546-2.46
			C54.616,442.131,54.806,442.318,54.996,442.505z"/>
		<path style="fill:#FFF6F3;" d="M54.996,442.505c-0.19-0.187-0.381-0.375-0.571-0.562
			C54.615,442.131,54.806,442.318,54.996,442.505z"/>
		<path style="fill:#FFF6F3;" d="M85.732,406.261c-0.237,0.025-0.475,0.049-0.712,0.074c0.092-0.177,0.185-0.353,0.276-0.531
			C85.441,405.956,85.587,406.108,85.732,406.261z"/>
		<path style="fill:#B2CDDD;" d="M38.938,468.443c0.15-0.185,0.299-0.37,0.447-0.557c0.061,0.06,0.122,0.123,0.183,0.187
			c-0.174,0.159-0.349,0.318-0.523,0.477L38.938,468.443z"/>
		<path style="fill:#B2CDDD;" d="M39.045,468.55c-0.085,0.101-0.169,0.202-0.254,0.303c0.049-0.136,0.099-0.272,0.148-0.409
			C38.938,468.443,39.045,468.55,39.045,468.55z"/>
		<path style="fill:#FCF4F2;" d="M152.512,456.519c3.724-3.191,7.427-6.406,11.178-9.566c5.138-4.329,10.983-7.111,17.688-8.031
			c4.144-0.569,8.325-1.086,12.392,0.074c3.417,0.975,6.74,2.334,10.019,3.724c2.576,1.092,4.493,3.109,6.227,5.273
			c-0.363,0.164-0.719,0.451-1.09,0.473c-3.391,0.201-6.791,0.268-10.175,0.546c-4.61,0.379-9.215,0.848-13.808,1.394
			c-3.524,0.419-7.03,0.992-10.537,1.545c-3.095,0.488-6.184,1.022-9.267,1.587c-0.554,0.102-1.122,0.37-1.581,0.702
			c-1.272,0.919-2.694,1.102-4.212,1.261c-1.542,0.161-3.047,0.703-4.557,1.123C154.003,456.842,153.236,457.36,152.512,456.519z"/>
		<path style="fill:#FDFDFE;" d="M511.621,426.476c-3.305-4.685-4.944-9.95-5.001-15.629c-0.044-4.401,1.644-8.317,4.647-11.502
			c4.067-4.313,8.555-3.465,12.441-0.361c3.542,2.83,5.056,6.77,5.474,11.091c0.534,5.52-0.699,10.843-2.418,16.059
			c-0.983-0.041-1.967-0.142-2.947-0.111C519.751,426.154,515.686,426.322,511.621,426.476z"/>
		<path style="fill:#FCDACF;" d="M651.961,420.462c0.457,1.649,1.046,3.198,1.302,4.8c1.302,8.173-0.427,15.373-7.132,20.786
			c-1.133,0.914-2.531,1.579-3.906,2.097c-2.092,0.788-3.43,0.253-4.71-1.598c-1.317-1.906-1.929-4.125-1.956-6.347
			c-0.043-3.592,0.49-7.119,2.83-10.114C641.891,425.603,646.011,422.022,651.961,420.462z"/>
		<path style="fill:#FCDACF;" d="M511.621,426.476c4.065-0.154,8.13-0.323,12.197-0.451c0.98-0.031,1.964,0.07,2.947,0.111
			c-1.078,3.612-2.945,6.8-5.242,10.06C517.381,433.636,514.095,430.483,511.621,426.476z"/>
		<path style="fill:#FCF4F2;" d="M671.49,42.976c-6.142,3.441-12.679,5.742-19.651,6.756c-0.795,0.116-1.628-0.034-2.444-0.061
			c1.531-1.117,3.073-2.22,4.591-3.355c4.155-3.107,7.066-7.144,9-11.941c0.856-2.123,1.63-4.324,3.492-5.861
			c0.109,0.119,0.327,0.255,0.311,0.354c-0.456,2.874,1.245,5.016,2.354,7.403C670.137,38.409,670.724,40.734,671.49,42.976z"/>
		<path style="fill:#FCDACF;" d="M44.946,187.536c-2.014-2.137-2.307-4.983-2.747-7.619c-0.808-4.84-0.994-9.759-0.049-14.636
			c0.235-1.212,0.609-2.397,0.958-3.746c5.756,1.751,10.783,4.308,14.401,9.103c1.383,1.833,2.344,3.833,2.132,6.225
			c-3.912,2.994-7.808,6.009-11.748,8.963C46.99,186.502,45.932,186.971,44.946,187.536z"/>
		<path style="fill:#FDFDFE;" d="M44.946,187.536c0.986-0.565,2.044-1.034,2.946-1.71c3.94-2.954,7.836-5.969,11.748-8.963
			c-0.338,5.45-2.595,9.823-7.311,12.737C49.221,191.52,46.846,190.81,44.946,187.536z"/>
		<path style="fill:#B2CDDD;" d="M691.081,24.59c-3.258,0.185-6.128,0.435-9.001,0.468c-1.118,0.013-2.331-0.276-3.345-0.755
			c-2.07-0.977-2.448-3.227-0.915-4.948c2.14-2.402,4.559-4.366,8.005-4.403c3.254-0.035,5.531,2.038,5.661,5.286
			C691.538,21.53,691.256,22.834,691.081,24.59z"/>
		<path style="fill:#DAF1FF;" d="M637.089,20.336c-1.909,2.161-6.906,3.383-9.288,2.273c-1.479-0.69-1.718-1.984-0.564-3.179
			c0.283-0.293,0.616-0.567,0.976-0.751C630.685,17.409,635.08,18.241,637.089,20.336z"/>
		<path style="fill:#B2CDDD;" d="M717.068,36.946c1.984-3.135,3.968-6.269,5.981-9.449c1.573,1.415,1.983,2.902,1.154,4.533
			c-1.411,2.775-3.662,4.579-6.622,5.428C717.41,37.287,717.239,37.116,717.068,36.946z"/>
		<path style="fill:#FCF4F2;" d="M137.585,455.924c-0.232,1.81-0.466,3.621-0.694,5.431c-0.152,1.21-0.755,1.98-2.018,2.163
			c-2.277,0.33-4.455,1.03-6.873,0.68c-4.262-0.616-6.739-3.083-7.888-6.96c-1.494-5.037-0.23-9.754,2.481-14.042
			c2.013-3.184,5.467-3.625,8.715-1.513c3.204,2.084,4.885,5.144,5.587,8.784C137.24,452.255,137.36,454.083,137.585,455.924z"/>
		<path style="fill:#89A4B5;" d="M687.992,63.991c-0.122,0.286-0.244,0.572-0.366,0.858c-0.103-0.07-0.205-0.141-0.308-0.211
			c0.23-0.211,0.46-0.421,0.69-0.632C688.008,64.006,687.992,63.991,687.992,63.991z"/>
	</g>
</g>
</svg>
